  0
SECTION
  2
HEADER
  9
$ACADVER
  1
AC1015
  9
$ACADMAINTVER
 70
     6
  9
$DWGCODEPAGE
  3
ANSI_1251
  9
$INSBASE
 10
0.0
 20
0.0
 30
0.0
  9
$EXTMIN
 10
0.0
 20
0.0
 30
0.0
  9
$EXTMAX
 10
70.0
 20
50.0
 30
0.0
  9
$LIMMIN
 10
0.0
 20
0.0
  9
$LIMMAX
 10
70.0
 20
50.0
  9
$ORTHOMODE
 70
     0
  9
$REGENMODE
 70
     1
  9
$FILLMODE
 70
     1
  9
$QTEXTMODE
 70
     0
  9
$MIRRTEXT
 70
     1
  9
$LTSCALE
 40
1.0
  9
$ATTMODE
 70
     1
  9
$TEXTSIZE
 40
5.0
  9
$TRACEWID
 40
1.0
  9
$TEXTSTYLE
  7
Standard
  9
$CLAYER
  8
0
  9
$CELTYPE
  6
ByLayer
  9
$CECOLOR
 62
   256
  9
$CELTSCALE
 40
1.0
  9
$DISPSILH
 70
     0
  9
$DIMSCALE
 40
1.0
  9
$DIMASZ
 40
4.0
  9
$DIMEXO
 40
0.0
  9
$DIMDLI
 40
3.75
  9
$DIMRND
 40
0.0
  9
$DIMDLE
 40
0.0
  9
$DIMEXE
 40
1.5
  9
$DIMTP
 40
0.0
  9
$DIMTM
 40
0.0
  9
$DIMTXT
 40
5.0
  9
$DIMCEN
 40
2.5
  9
$DIMTSZ
 40
0.0
  9
$DIMTOL
 70
     0
  9
$DIMLIM
 70
     0
  9
$DIMTIH
 70
     1
  9
$DIMTOH
 70
     1
  9
$DIMSE1
 70
     0
  9
$DIMSE2
 70
     0
  9
$DIMTAD
 70
     1
  9
$DIMZIN
 70
     0
  9
$DIMBLK
  1

  9
$DIMASO
 70
     1
  9
$DIMSHO
 70
     1
  9
$DIMPOST
  1

  9
$DIMAPOST
  1

  9
$DIMALT
 70
     0
  9
$DIMALTD
 70
     3
  9
$DIMALTF
 40
0.0393700787
  9
$DIMLFAC
 40
1.0
  9
$DIMTOFL
 70
     1
  9
$DIMTVP
 40
0.0
  9
$DIMTIX
 70
     0
  9
$DIMSOXD
 70
     0
  9
$DIMSAH
 70
     0
  9
$DIMBLK1
  1

  9
$DIMBLK2
  1

  9
$DIMSTYLE
  2
ISO-25
  9
$DIMCLRD
 70
     0
  9
$DIMCLRE
 70
     0
  9
$DIMCLRT
 70
     0
  9
$DIMTFAC
 40
1.0
  9
$DIMGAP
 40
3.0
  9
$DIMJUST
 70
     0
  9
$DIMSD1
 70
     0
  9
$DIMSD2
 70
     0
  9
$DIMTOLJ
 70
     0
  9
$DIMTZIN
 70
     0
  9
$DIMALTZ
 70
     0
  9
$DIMALTTZ
 70
     0
  9
$DIMUPT
 70
     0
  9
$DIMDEC
 70
     2
  9
$DIMTDEC
 70
     3
  9
$DIMALTU
 70
     2
  9
$DIMALTTD
 70
     3
  9
$DIMTXSTY
  7
Standard
  9
$DIMAUNIT
 70
     0
  9
$DIMADEC
 70
     2
  9
$DIMALTRND
 40
0.0
  9
$DIMAZIN
 70
     0
  9
$DIMDSEP
 70
    44
  9
$DIMATFIT
 70
     3
  9
$DIMFRAC
 70
     0
  9
$DIMLDRBLK
  1

  9
$DIMLUNIT
 70
     2
  9
$DIMLWD
 70
    -2
  9
$DIMLWE
 70
    -2
  9
$DIMTMOVE
 70
     0
  9
$LUNITS
 70
     2
  9
$LUPREC
 70
     2
  9
$SKETCHINC
 40
1.0
  9
$FILLETRAD
 40
10.0
  9
$AUNITS
 70
     0
  9
$AUPREC
 70
     2
  9
$MENU
  1
.
  9
$ELEVATION
 40
0.0
  9
$PELEVATION
 40
0.0
  9
$THICKNESS
 40
0.0
  9
$LIMCHECK
 70
     0
  9
$CHAMFERA
 40
0.0
  9
$CHAMFERB
 40
0.0
  9
$CHAMFERC
 40
0.0
  9
$CHAMFERD
 40
0.0
  9
$SKPOLY
 70
     0
  9
$TDCREATE
 40
2460158.623791632
  9
$TDUCREATE
 40
2460158.498791632
  9
$TDUPDATE
 40
2460158.623791805
  9
$TDUUPDATE
 40
2460158.498791805
  9
$TDINDWG
 40
0.0000000116
  9
$TDUSRTIMER
 40
0.0000000116
  9
$USRTIMER
 70
     1
  9
$ANGBASE
 50
0.0
  9
$ANGDIR
 70
     0
  9
$PDMODE
 70
     0
  9
$PDSIZE
 40
-1.0
  9
$PLINEWID
 40
0.0
  9
$SPLFRAME
 70
     0
  9
$SPLINETYPE
 70
     6
  9
$SPLINESEGS
 70
     8
  9
$HANDSEED
  5
DD
  9
$SURFTAB1
 70
     6
  9
$SURFTAB2
 70
     6
  9
$SURFTYPE
 70
     6
  9
$SURFU
 70
     6
  9
$SURFV
 70
     6
  9
$UCSBASE
  2

  9
$UCSNAME
  2

  9
$UCSORG
 10
0.0
 20
0.0
 30
0.0
  9
$UCSXDIR
 10
1.0
 20
0.0
 30
0.0
  9
$UCSYDIR
 10
0.0
 20
1.0
 30
0.0
  9
$UCSORTHOREF
  2

  9
$UCSORTHOVIEW
 70
     0
  9
$UCSORGTOP
 10
0.0
 20
0.0
 30
0.0
  9
$UCSORGBOTTOM
 10
0.0
 20
0.0
 30
0.0
  9
$UCSORGLEFT
 10
0.0
 20
0.0
 30
0.0
  9
$UCSORGRIGHT
 10
0.0
 20
0.0
 30
0.0
  9
$UCSORGFRONT
 10
0.0
 20
0.0
 30
0.0
  9
$UCSORGBACK
 10
0.0
 20
0.0
 30
0.0
  9
$PUCSBASE
  2

  9
$PUCSNAME
  2

  9
$PUCSORG
 10
0.0
 20
0.0
 30
0.0
  9
$PUCSXDIR
 10
1.0
 20
0.0
 30
0.0
  9
$PUCSYDIR
 10
0.0
 20
1.0
 30
0.0
  9
$PUCSORTHOREF
  2

  9
$PUCSORTHOVIEW
 70
     0
  9
$PUCSORGTOP
 10
0.0
 20
0.0
 30
0.0
  9
$PUCSORGBOTTOM
 10
0.0
 20
0.0
 30
0.0
  9
$PUCSORGLEFT
 10
0.0
 20
0.0
 30
0.0
  9
$PUCSORGRIGHT
 10
0.0
 20
0.0
 30
0.0
  9
$PUCSORGFRONT
 10
0.0
 20
0.0
 30
0.0
  9
$PUCSORGBACK
 10
0.0
 20
0.0
 30
0.0
  9
$USERI1
 70
     0
  9
$USERI2
 70
     0
  9
$USERI3
 70
     0
  9
$USERI4
 70
     0
  9
$USERI5
 70
     0
  9
$USERR1
 40
0.0
  9
$USERR2
 40
0.0
  9
$USERR3
 40
0.0
  9
$USERR4
 40
0.0
  9
$USERR5
 40
0.0
  9
$WORLDVIEW
 70
     1
  9
$SHADEDGE
 70
     3
  9
$SHADEDIF
 70
    70
  9
$TILEMODE
 70
     1
  9
$MAXACTVP
 70
    64
  9
$PINSBASE
 10
0.0
 20
0.0
 30
0.0
  9
$PLIMCHECK
 70
     0
  9
$PEXTMIN
 10
1.0000000000E+20
 20
1.0000000000E+20
 30
1.0000000000E+20
  9
$PEXTMAX
 10
-1.0000000000E+20
 20
-1.0000000000E+20
 30
-1.0000000000E+20
  9
$PLIMMIN
 10
0.0
 20
0.0
  9
$PLIMMAX
 10
420.0
 20
297.0
  9
$UNITMODE
 70
     0
  9
$VISRETAIN
 70
     1
  9
$PLINEGEN
 70
     0
  9
$PSLTSCALE
 70
     1
  9
$TREEDEPTH
 70
  3020
  9
$CMLSTYLE
  2
Standard
  9
$CMLJUST
 70
     0
  9
$CMLSCALE
 40
20.0
  9
$PROXYGRAPHICS
 70
     1
  9
$MEASUREMENT
 70
     1
  9
$CELWEIGHT
370
    -1
  9
$ENDCAPS
280
     0
  9
$JOINSTYLE
280
     0
  9
$LWDISPLAY
290
     1
  9
$INSUNITS
 70
     4
  9
$HYPERLINKBASE
  1

  9
$STYLESHEET
  1

  9
$XEDIT
290
     1
  9
$CEPSNTYPE
380
     0
  9
$PSTYLEMODE
290
     1
  9
$FINGERPRINTGUID
  2
{c619655c-ab3e-4d39-8573-4cff1fdb38f6}
  9
$VERSIONGUID
  2
{FAEB1C32-E019-11D5-929B-00C0DF256EC4}
  9
$EXTNAMES
290
     1
  9
$PSVPSCALE
 40
0.0
  9
$OLESTARTUP
290
     0
  0
ENDSEC
  0
SECTION
  2
CLASSES
  0
CLASS
  1
ACDBDICTIONARYWDFLT
  2
AcDbDictionaryWithDefault
  3
ObjectDBX Classes
 90
        0
280
     0
281
     0
  0
CLASS
  1
VISUALSTYLE
  2
AcDbVisualStyle
  3
ObjectDBX Classes
 90
     4095
280
     0
281
     0
  0
CLASS
  1
MATERIAL
  2
AcDbMaterial
  3
ObjectDBX Classes
 90
     1153
280
     0
281
     0
  0
CLASS
  1
SCALE
  2
AcDbScale
  3
ObjectDBX Classes
 90
     1153
280
     0
281
     0
  0
CLASS
  1
TABLESTYLE
  2
AcDbTableStyle
  3
ObjectDBX Classes
 90
     4095
280
     0
281
     0
  0
CLASS
  1
MLEADERSTYLE
  2
AcDbMLeaderStyle
  3
ACDB_MLEADERSTYLE_CLASS
 90
     4095
280
     0
281
     0
  0
CLASS
  1
SUN
  2
AcDbSun
  3
SCENEOE
 90
     1153
280
     0
281
     0
  0
CLASS
  1
ACDBPLACEHOLDER
  2
AcDbPlaceHolder
  3
ObjectDBX Classes
 90
        0
280
     0
281
     0
  0
CLASS
  1
LAYOUT
  2
AcDbLayout
  3
ObjectDBX Classes
 90
        0
280
     0
281
     0
  0
ENDSEC
  0
SECTION
  2
TABLES
  0
TABLE
  2
VPORT
  5
8
330
0
100
AcDbSymbolTable
 70
     1
  0
VPORT
  5
29
330
8
100
AcDbSymbolTableRecord
100
AcDbViewportTableRecord
  2
*Active
 70
     0
 10
0.0
 20
0.0
 11
1.0
 21
1.0
 12
35.0
 22
25.0
 13
0.0
 23
0.0
 14
10.0
 24
10.0
 15
10.0
 25
10.0
 16
0.0
 26
0.0
 36
1.0
 17
0.0
 27
0.0
 37
0.0
 40
50.0
 41
1.4
 42
50.0
 43
0.0
 44
0.0
 50
0.0
 51
0.0
 71
     0
 72
  2000
 73
     1
 74
     3
 75
     0
 76
     0
 77
     0
 78
     0
281
     0
 65
     1
110
0.0
120
0.0
130
0.0
111
1.0
121
0.0
131
0.0
112
0.0
122
1.0
132
0.0
 79
     0
146
0.0
  0
ENDTAB
  0
TABLE
  2
LTYPE
  5
5
330
0
100
AcDbSymbolTable
 70
     6
  0
LTYPE
  5
14
330
5
100
AcDbSymbolTableRecord
100
AcDbLinetypeTableRecord
  2
ByBlock
 70
     0
  3

 72
    65
 73
     0
 40
0.0
  0
LTYPE
  5
15
330
5
100
AcDbSymbolTableRecord
100
AcDbLinetypeTableRecord
  2
ByLayer
 70
     0
  3

 72
    65
 73
     0
 40
0.0
  0
LTYPE
  5
16
330
5
100
AcDbSymbolTableRecord
100
AcDbLinetypeTableRecord
  2
Continuous
 70
     0
  3
Solid line
 72
    65
 73
     0
 40
0.0
  0
LTYPE
  5
6E
330
5
100
AcDbSymbolTableRecord
100
AcDbLinetypeTableRecord
  2
HIDDEN
 70
     0
  3
Hidden __ __ __ __ __ __ __ __ __ __ __ __ __ __
 72
    65
 73
     2
 40
1.905
 49
1.27
 74
     0
 49
-0.635
 74
     0
  0
LTYPE
  5
6F
330
5
100
AcDbSymbolTableRecord
100
AcDbLinetypeTableRecord
  2
PHANTOM
 70
     0
  3
Phantom ______  __  __  ______  __  __  ______
 72
    65
 73
     6
 40
12.7
 49
6.35
 74
     0
 49
-1.27
 74
     0
 49
1.27
 74
     0
 49
-1.27
 74
     0
 49
1.27
 74
     0
 49
-1.27
 74
     0
  0
LTYPE
  5
70
330
5
100
AcDbSymbolTableRecord
100
AcDbLinetypeTableRecord
  2
CENTER
 70
     0
  3
Center ____ _ ____ _ ____ _ ____ _ ____ _ ____
 72
    65
 73
     4
 40
10.16
 49
6.35
 74
     0
 49
-1.27
 74
     0
 49
1.27
 74
     0
 49
-1.27
 74
     0
  0
LTYPE
  5
71
330
5
100
AcDbSymbolTableRecord
100
AcDbLinetypeTableRecord
  2
CENTERX2
 70
     0
  3
Center (2x) ________  __  ________  __  _____
 72
    65
 73
     4
 40
20.32
 49
12.7
 74
     0
 49
-2.54
 74
     0
 49
2.54
 74
     0
 49
-2.54
 74
     0
  0
LTYPE
  5
72
330
5
100
AcDbSymbolTableRecord
100
AcDbLinetypeTableRecord
  2
DOT2
 70
     0
  3
Dot (.5x) ........................................
 72
    65
 73
     2
 40
0.635
 49
0.0
 74
     0
 49
-0.635
 74
     0
  0
ENDTAB
  0
TABLE
  2
LAYER
  5
2
330
0
100
AcDbSymbolTable
 70
    20
  0
LAYER
  5
10
330
2
100
AcDbSymbolTableRecord
100
AcDbLayerTableRecord
  2
0
 70
     0
 62
     7
  6
Continuous
370
    -3
390
F
  0
LAYER
  5
73
330
2
100
AcDbSymbolTableRecord
100
AcDbLayerTableRecord
  2
ĎĹ×ŔŇÜ
 70
     0
 62
     1
  6
Continuous
370
    -3
390
F
  0
LAYER
  5
74
330
2
100
AcDbSymbolTableRecord
100
AcDbLayerTableRecord
  2
ÎŃÍÎÂÍÎÉ
 70
     0
 62
     7
  6
Continuous
370
    35
390
F
  0
LAYER
  5
75
330
2
100
AcDbSymbolTableRecord
100
AcDbLayerTableRecord
  2
FORMAT
 70
     0
 62
     7
  6
Continuous
370
    -3
390
F
  0
LAYER
  5
76
330
2
100
AcDbSymbolTableRecord
100
AcDbLayerTableRecord
  2
HIDDENLAYER
 70
     0
 62
    -7
  6
Continuous
290
     0
370
    -3
390
F
  0
LAYER
  5
77
330
2
100
AcDbSymbolTableRecord
100
AcDbLayerTableRecord
  2
ŃĘĐŰŇÜ
 70
     0
 62
     7
  6
Continuous
370
    -3
390
F
  0
LAYER
  5
78
330
2
100
AcDbSymbolTableRecord
100
AcDbLayerTableRecord
  2
ŇĹĘŃŇ
 70
     0
 62
    31
  6
Continuous
370
    50
390
F
  0
LAYER
  5
79
330
2
100
AcDbSymbolTableRecord
100
AcDbLayerTableRecord
  2
ŃËÎÉ1
 70
     0
 62
     7
  6
Continuous
370
    -3
390
F
  0
LAYER
  5
7A
330
2
100
AcDbSymbolTableRecord
100
AcDbLayerTableRecord
  2
ÂŃĎÎĚÎĂŔŇĹËÜÍŰÉ
 70
     0
 62
     1
  6
Continuous
370
    -3
390
F
  0
LAYER
  5
7B
330
2
100
AcDbSymbolTableRecord
100
AcDbLayerTableRecord
  2
ŃÂŔĐÍŰĹ_ŘÂŰ
 70
     0
 62
   211
  6
Continuous
370
    -3
390
F
  0
LAYER
  5
7C
330
2
100
AcDbSymbolTableRecord
100
AcDbLayerTableRecord
  2
ĎÎÇČÖČČ
 70
     0
 62
   155
  6
Continuous
370
    -3
390
F
  0
LAYER
  5
7D
330
2
100
AcDbSymbolTableRecord
100
AcDbLayerTableRecord
  2
ĐŔÇĚĹĐŰ
 70
     0
 62
   216
  6
Continuous
370
    -3
390
F
  0
LAYER
  5
7E
330
2
100
AcDbSymbolTableRecord
100
AcDbLayerTableRecord
  2
ÎŃĹÂŰĹ
 70
     0
 62
     7
  6
Continuous
370
    -3
390
F
  0
LAYER
  5
7F
330
2
100
AcDbSymbolTableRecord
100
AcDbLayerTableRecord
  2
ÂÎÄßÍŰĹ_ÇÍŔĘČ
 70
     0
 62
    11
  6
Continuous
370
    -3
390
F
  0
LAYER
  5
80
330
2
100
AcDbSymbolTableRecord
100
AcDbLayerTableRecord
  2
ÔÎĐĚŔŇ
 70
     0
 62
     7
  6
Continuous
370
    -3
390
F
  0
LAYER
  5
81
330
2
100
AcDbSymbolTableRecord
100
AcDbLayerTableRecord
  2
ĐŔÇĚĹĐ
 70
     0
 62
     1
  6
Continuous
370
    -3
390
F
  0
LAYER
  5
82
330
2
100
AcDbSymbolTableRecord
100
AcDbLayerTableRecord
  2
ĎĐČĚĹ×ŔÍČß
 70
     0
 62
     5
  6
Continuous
370
    -3
390
F
  0
LAYER
  5
83
330
2
100
AcDbSymbolTableRecord
100
AcDbLayerTableRecord
  2
THIN_LINE
 70
     0
 62
     7
  6
Continuous
370
    -3
390
F
  0
LAYER
  5
84
330
2
100
AcDbSymbolTableRecord
100
AcDbLayerTableRecord
  2
THICK_LINE
 70
     0
 62
     7
  6
Continuous
370
    25
390
F
  0
LAYER
  5
85
330
2
100
AcDbSymbolTableRecord
100
AcDbLayerTableRecord
  2
ĎÎÄ×ĹĐĘŇČĎÎĐŔÇĚĹĐ
 70
     0
 62
    -7
  6
Continuous
290
     0
370
    -3
390
F
  0
ENDTAB
  0
TABLE
  2
STYLE
  5
3
330
0
100
AcDbSymbolTable
 70
     2
  0
STYLE
  5
11
330
3
100
AcDbSymbolTableRecord
100
AcDbTextStyleTableRecord
  2
Standard
 70
     0
 40
0.0
 41
1.0
 50
0.0
 71
     0
 42
5.0
  3
txt
  4

  0
STYLE
  5
C7
330
3
100
AcDbSymbolTableRecord
100
AcDbTextStyleTableRecord
  2
SLDTEXTSTYLE0
 70
     0
 40
0.0
 41
0.7
 50
0.0
 71
     0
 42
5.0
  3
TXT
  4

  0
ENDTAB
  0
TABLE
  2
VIEW
  5
6
330
0
100
AcDbSymbolTable
 70
     0
  0
ENDTAB
  0
TABLE
  2
UCS
  5
7
330
0
100
AcDbSymbolTable
 70
     0
  0
ENDTAB
  0
TABLE
  2
APPID
  5
9
330
0
100
AcDbSymbolTable
 70
     1
  0
APPID
  5
12
330
9
100
AcDbSymbolTableRecord
100
AcDbRegAppTableRecord
  2
ACAD
 70
     0
  0
ENDTAB
  0
TABLE
  2
DIMSTYLE
  5
A
330
0
100
AcDbSymbolTable
 70
     2
100
AcDbDimStyleTable
  0
DIMSTYLE
105
27
330
A
100
AcDbSymbolTableRecord
100
AcDbDimStyleTableRecord
  2
ISO-25
 70
     0
 41
2.5
 42
0.625
 43
3.75
 44
1.25
 73
     0
 74
     0
 77
     1
 78
     8
140
2.5
141
2.5
143
0.0393700787
147
0.625
171
     3
172
     1
178
     0
271
     2
272
     2
274
     3
278
    44
283
     0
284
     8
340
11
  0
DIMSTYLE
105
C8
102
{ACAD_REACTORS
330
C6
330
D2
102
}
330
A
100
AcDbSymbolTableRecord
100
AcDbDimStyleTableRecord
  2
SLDDIMSTYLE0
 70
     0
 41
4.0
 44
0.0
 45
0.000000001
 73
     0
 74
     0
 77
     2
 78
    12
 79
     3
140
5.0
147
1.25
173
     1
178
     0
271
     2
272
     3
276
     2
284
    12
340
C7
  0
ENDTAB
  0
TABLE
  2
BLOCK_RECORD
  5
1
330
0
100
AcDbSymbolTable
 70
     7
  0
BLOCK_RECORD
  5
1F
330
1
100
AcDbSymbolTableRecord
100
AcDbBlockTableRecord
  2
*Model_Space
340
22
  0
BLOCK_RECORD
  5
1B
330
1
100
AcDbSymbolTableRecord
100
AcDbBlockTableRecord
  2
*Paper_Space
340
1E
  0
BLOCK_RECORD
  5
23
330
1
100
AcDbSymbolTableRecord
100
AcDbBlockTableRecord
  2
*Paper_Space0
340
26
  0
BLOCK_RECORD
  5
86
330
1
100
AcDbSymbolTableRecord
100
AcDbBlockTableRecord
  2
Ďîäďčńü
340
0
  0
BLOCK_RECORD
  5
91
330
1
100
AcDbSymbolTableRecord
100
AcDbBlockTableRecord
  2
Đîńďčńü Ë¸âęčí_
340
0
  0
BLOCK_RECORD
  5
A0
330
1
100
AcDbSymbolTableRecord
100
AcDbBlockTableRecord
  2
Đîńďčńü Ë¸âęčí__1
340
0
  0
BLOCK_RECORD
  5
AF
330
1
100
AcDbSymbolTableRecord
100
AcDbBlockTableRecord
  2
Đîńďčńü Ĺđîíüęî
340
0
  0
BLOCK_RECORD
  5
C9
330
1
100
AcDbSymbolTableRecord
100
AcDbBlockTableRecord
  2
_D
340
0
  0
BLOCK_RECORD
  5
D3
330
1
100
AcDbSymbolTableRecord
100
AcDbBlockTableRecord
  2
_D_1
340
0
  0
ENDTAB
  0
ENDSEC
  0
SECTION
  2
BLOCKS
  0
BLOCK
  5
20
330
1F
100
AcDbEntity
  8
0
100
AcDbBlockBegin
  2
*Model_Space
 70
     0
 10
0.0
 20
0.0
 30
0.0
  3
*Model_Space
  1

  0
ENDBLK
  5
21
330
1F
100
AcDbEntity
  8
0
100
AcDbBlockEnd
  0
BLOCK
  5
1C
330
1B
100
AcDbEntity
 67
     1
  8
0
100
AcDbBlockBegin
  2
*Paper_Space
 70
     0
 10
0.0
 20
0.0
 30
0.0
  3
*Paper_Space
  1

  0
ENDBLK
  5
1D
330
1B
100
AcDbEntity
 67
     1
  8
0
100
AcDbBlockEnd
  0
BLOCK
  5
24
330
23
100
AcDbEntity
  8
0
100
AcDbBlockBegin
  2
*Paper_Space0
 70
     0
 10
0.0
 20
0.0
 30
0.0
  3
*Paper_Space0
  1

  0
ENDBLK
  5
25
330
23
100
AcDbEntity
  8
0
100
AcDbBlockEnd
  0
BLOCK
  5
87
330
86
100
AcDbEntity
  8
0
100
AcDbBlockBegin
  2
Ďîäďčńü
 70
     0
 10
0.0
 20
0.0
 30
0.0
  3
Ďîäďčńü
  1

  0
SPLINE
  5
89
330
86
100
AcDbEntity
  8
0
  6
Continuous
 62
     7
370
    35
100
AcDbSpline
210
0.0
220
0.0
230
1.0
 70
     8
 71
     3
 72
    12
 73
     8
 74
     0
 42
0.00000001
 43
0.00000001
 40
0.0
 40
0.0
 40
0.0
 40
0.0
 40
0.2753888942043662
 40
0.5212875660960078
 40
0.6433730093912386
 40
0.9238356703275409
 40
1.0
 40
1.0
 40
1.0
 40
1.0
 10
14.75323192702116
 20
6.668554373634588
 30
0.0
 10
14.56382010971825
 20
5.98515282796594
 30
0.0
 10
14.20527977890019
 20
4.691532293858679
 30
0.0
 10
13.08847731008342
 20
1.419316002103838
 30
0.0
 10
11.96113261041626
 20
4.068617603744094
 30
0.0
 10
13.68811617588483
 20
4.850132578050913
 30
0.0
 10
14.35665931589181
 20
5.698901270053305
 30
0.0
 10
14.49943914315288
 20
5.880171617434982
 30
0.0
  0
SPLINE
  5
8A
330
86
100
AcDbEntity
  8
0
  6
Continuous
 62
     7
370
    35
100
AcDbSpline
210
0.0
220
0.0
230
1.0
 70
     8
 71
     3
 72
    18
 73
    14
 74
     0
 42
0.00000001
 43
0.00000001
 40
0.0
 40
0.0
 40
0.0
 40
0.0
 40
0.2857266829200636
 40
0.4478391481078201
 40
0.5714526024963303
 40
0.5967271251500667
 40
0.6025761718595529
 40
0.6188567667610769
 40
0.6852497746168411
 40
0.7096438454666641
 40
0.7586893366900669
 40
0.825526527273817
 40
1.0
 40
1.0
 40
1.0
 40
1.0
 10
15.68755857824566
 20
7.164312885127311
 30
0.0
 10
15.19619817013634
 20
3.229428346465637
 30
0.0
 10
14.42605509377846
 20
-2.937987736931369
 30
0.0
 10
15.13532251178209
 20
4.07722638589156
 30
0.0
 10
15.46629809072321
 20
6.459498922672406
 30
0.0
 10
15.59214413895442
 20
7.597349418874328
 30
0.0
 10
15.59519733986551
 20
8.105200468124952
 30
0.0
 10
16.12895490427752
 20
6.819546146845934
 30
0.0
 10
17.1629792841579
 20
7.812678983313196
 30
0.0
 10
18.29391749316446
 20
7.44338907138323
 30
0.0
 10
19.45080927665873
 20
7.828222063354505
 30
0.0
 10
21.82704944789706
 20
8.102859566409794
 30
0.0
 10
23.76794044825073
 20
8.643119401239382
 30
0.0
 10
25.17125179955959
 20
9.033740388576877
 30
0.0
  0
SPLINE
  5
8B
330
86
100
AcDbEntity
  8
0
  6
Continuous
 62
     7
370
    35
100
AcDbSpline
210
0.0
220
0.0
230
1.0
 70
     8
 71
     3
 72
    15
 73
    11
 74
     0
 42
0.00000001
 43
0.00000001
 40
0.0
 40
0.0
 40
0.0
 40
0.0
 40
0.044673771762487
 40
0.2222506081794538
 40
0.517059921915385
 40
0.5366301547776855
 40
0.643309175199569
 40
0.8191601029684275
 40
0.8834382272965496
 40
1.0
 40
1.0
 40
1.0
 40
1.0
 10
6.931289133603635
 20
13.49259351823473
 30
0.0
 10
6.763951643587446
 20
13.31842947454152
 30
0.0
 10
5.931452898573244
 20
12.45196883988536
 30
0.0
 10
4.534828101622757
 20
9.995336317636752
 30
0.0
 10
3.979300471925603
 20
7.250448108254506
 30
0.0
 10
2.549914416145673
 20
5.520847341698206
 30
0.0
 10
0.793107096444345
 20
4.298931800365845
 30
0.0
 10
-0.6269859895521541
 20
7.939809281891075
 30
0.0
 10
1.94286801179826
 20
8.245462564157515
 30
0.0
 10
1.937531397196689
 20
7.009935131037811
 30
0.0
 10
1.93409164043723
 20
6.213566242357052
 30
0.0
  0
SPLINE
  5
8C
330
86
100
AcDbEntity
  8
0
  6
Continuous
 62
     7
370
    35
100
AcDbSpline
210
0.0
220
0.0
230
1.0
 70
    11
 71
     3
 72
    16
 73
    12
 74
     0
 42
0.00000001
 43
0.00000001
 40
0.0
 40
0.0
 40
0.0
 40
0.0
 40
0.1085992056641971
 40
0.2528259614579003
 40
0.4422422827611161
 40
0.5207434950225147
 40
0.5934591915724533
 40
0.6818894142370446
 40
0.7748385959122938
 40
0.9143146259350604
 40
1.0
 40
1.0
 40
1.0
 40
1.0
 10
8.289972872991713
 20
8.722390768295119
 30
0.0
 10
7.866355131167993
 20
8.578397741692545
 30
0.0
 10
7.204740248829573
 20
7.945401449797874
 30
0.0
 10
6.172663634343345
 20
6.747011209817773
 30
0.0
 10
6.29814348972647
 20
4.416697520307726
 30
0.0
 10
7.820245683546766
 20
4.648515356591793
 30
0.0
 10
8.331266494565897
 20
5.390881905504156
 30
0.0
 10
8.813672311279742
 20
6.225493078909293
 30
0.0
 10
9.06887865342404
 20
7.260461669297479
 30
0.0
 10
9.73059004413179
 20
8.92531099412806
 30
0.0
 10
8.624209614841815
 20
8.836002062887228
 30
0.0
 10
8.289972872991713
 20
8.722390768295119
 30
0.0
  0
SPLINE
  5
8D
330
86
100
AcDbEntity
  8
0
  6
Continuous
 62
     7
370
    35
100
AcDbSpline
210
0.0
220
0.0
230
1.0
 70
     8
 71
     3
 72
    11
 73
     7
 74
     0
 42
0.00000001
 43
0.00000001
 40
0.0
 40
0.0
 40
0.0
 40
0.0
 40
0.3007287717267158
 40
0.4547193776660796
 40
0.7268120634824063
 40
1.0
 40
1.0
 40
1.0
 40
1.0
 10
13.78988663125058
 20
9.390805721983641
 30
0.0
 10
13.25766366523046
 20
8.2606733919021
 30
0.0
 10
12.4529116140759
 20
6.551847638834519
 30
0.0
 10
15.48341685145225
 20
6.262172237173777
 30
0.0
 10
15.80557447595478
 20
10.498114418218
 30
0.0
 10
15.10448218134522
 20
7.946782590266384
 30
0.0
 10
14.75323192702116
 20
6.668554373634588
 30
0.0
  0
SPLINE
  5
8E
330
86
100
AcDbEntity
  8
0
  6
Continuous
 62
     7
370
    35
100
AcDbSpline
210
0.0
220
0.0
230
1.0
 70
     8
 71
     3
 72
    13
 73
     9
 74
     0
 42
0.00000001
 43
0.00000001
 40
0.0
 40
0.0
 40
0.0
 40
0.0
 40
0.0861581258825076
 40
0.2251891808532438
 40
0.425509629052639
 40
0.8134622553535031
 40
0.9012049082827502
 40
1.0
 40
1.0
 40
1.0
 40
1.0
 10
6.931289133603635
 20
13.49259351823473
 30
0.0
 10
7.292477372357516
 20
13.71247406061882
 30
0.0
 10
8.236505376514993
 20
14.28716993193527
 30
0.0
 10
7.236875229453725
 20
11.88155955576466
 30
0.0
 10
6.438075462999373
 20
9.794294884899248
 30
0.0
 10
5.939204109391768
 20
7.712627929800073
 30
0.0
 10
5.023179989051517
 20
4.900228109974968
 30
0.0
 10
5.879821576640056
 20
5.353454997603205
 30
0.0
 10
6.333520555230177
 20
5.593495382013397
 30
0.0
  0
SPLINE
  5
8F
330
86
100
AcDbEntity
  8
0
  6
Continuous
 62
     7
370
    35
100
AcDbSpline
210
0.0
220
0.0
230
1.0
 70
     8
 71
     3
 72
    15
 73
    11
 74
     0
 42
0.00000001
 43
0.00000001
 40
0.0
 40
0.0
 40
0.0
 40
0.0
 40
0.1534265972611154
 40
0.2262046845724623
 40
0.3448126662384747
 40
0.382083371736378
 40
0.5602519764146462
 40
0.6992261888778849
 40
0.8314775627221594
 40
1.0
 40
1.0
 40
1.0
 40
1.0
 10
14.49943914315288
 20
5.880171617434982
 30
0.0
 10
15.11829063413143
 20
6.768016056695833
 30
0.0
 10
16.03069505952423
 20
8.077010552549877
 30
0.0
 10
16.43484583855717
 20
10.43491216030925
 30
0.0
 10
16.84583329887288
 20
12.01242260848102
 30
0.0
 10
17.22823633830899
 20
14.13171870739318
 30
0.0
 10
17.95188509960103
 20
18.89326574691783
 30
0.0
 10
16.8625122676635
 20
13.80555126389253
 30
0.0
 10
16.43893547567647
 20
11.30842086647864
 30
0.0
 10
15.95737506729926
 20
9.204054855795649
 30
0.0
 10
15.68755857824566
 20
8.024986479722967
 30
0.0
  0
SPLINE
  5
90
330
86
100
AcDbEntity
  8
0
  6
Continuous
 62
     7
370
    35
100
AcDbSpline
210
0.0
220
0.0
230
1.0
 70
     8
 71
     3
 72
    16
 73
    12
 74
     0
 42
0.00000001
 43
0.00000001
 40
0.0
 40
0.0
 40
0.0
 40
0.0
 40
0.124848158998199
 40
0.1956992350173346
 40
0.3256512472756525
 40
0.3635027779293624
 40
0.547306599704842
 40
0.6087971884321111
 40
0.6712915710504124
 40
0.8673030360559448
 40
1.0
 40
1.0
 40
1.0
 40
1.0
 10
9.532297825801006
 20
8.392476914169666
 30
0.0
 10
9.903967708274457
 20
8.76964978696651
 30
0.0
 10
10.48655949226773
 20
9.360867497086668
 30
0.0
 10
12.15822716513024
 20
9.119280100330638
 30
0.0
 10
11.59428123926955
 20
7.707055870340606
 30
0.0
 10
10.68537079098911
 20
6.702116772832789
 30
0.0
 10
9.156828887572672
 20
6.092449222275683
 30
0.0
 10
9.70686681667172
 20
4.678326037924489
 30
0.0
 10
11.17725868942512
 20
4.461460812008776
 30
0.0
 10
12.26315623862341
 20
6.021221454283084
 30
0.0
 10
12.89860689582402
 20
7.162805119539319
 30
0.0
 10
13.15513324416329
 20
7.623653315466967
 30
0.0
  0
ENDBLK
  5
88
330
86
100
AcDbEntity
  8
0
100
AcDbBlockEnd
  0
BLOCK
  5
92
330
91
100
AcDbEntity
  8
0
100
AcDbBlockBegin
  2
Đîńďčńü Ë¸âęčí_
 70
     0
 10
0.0
 20
0.0
 30
0.0
  3
Đîńďčńü Ë¸âęčí_
  1

  0
SPLINE
  5
94
330
91
100
AcDbEntity
  8
ŃÂŔĐÍŰĹ_ŘÂŰ
370
    18
100
AcDbSpline
210
0.0
220
0.0
230
1.0
 70
     8
 71
     3
 72
    36
 73
    32
 74
     0
 42
0.00000001
 43
0.00000001
 40
0.0
 40
0.0
 40
0.0
 40
0.0
 40
0.0061142623445803
 40
0.0116230529114703
 40
0.0299171156598356
 40
0.0932677807150905
 40
0.1257229021548877
 40
0.1320067894344666
 40
0.1387951832070516
 40
0.1446648750578494
 40
0.1789172646585662
 40
0.2157807909842753
 40
0.2607239725415278
 40
0.2901141776790192
 40
0.3236435125998064
 40
0.3363216247751377
 40
0.351717867103377
 40
0.3845792179091559
 40
0.4650294148190242
 40
0.5516031557363962
 40
0.5960642923758462
 40
0.6219607954467598
 40
0.6588878812442899
 40
0.7257232590350844
 40
0.801354826361658
 40
0.8842831264888853
 40
0.9149424655844142
 40
0.949460885676607
 40
0.9729645654136001
 40
0.9932081410263721
 40
1.0
 40
1.0
 40
1.0
 40
1.0
 10
9.310063022118259
 20
25.97336741546525
 30
0.0
 10
9.092666827590897
 20
25.93602909317239
 30
0.0
 10
8.679402343775676
 20
25.8650499183877
 30
0.0
 10
7.780929807652678
 20
26.72425767588553
 30
0.0
 10
11.16511092435023
 20
29.28171212943616
 30
0.0
 10
12.65916033803801
 20
31.9270653664931
 30
0.0
 10
16.12919890461792
 20
34.19158792041851
 30
0.0
 10
16.41374019775163
 20
35.64516966794196
 30
0.0
 10
16.48398289493096
 20
36.53342127290878
 30
0.0
 10
14.49919959461606
 20
36.12032729199279
 30
0.0
 10
12.204803526511
 20
35.75268335126288
 30
0.0
 10
8.51868137595707
 20
33.78004822029193
 30
0.0
 10
4.898994546200158
 20
32.40327665632542
 30
0.0
 10
2.248626517120074
 20
29.72345378432832
 30
0.0
 10
0.4837913770575964
 20
27.72956241319823
 30
0.0
 10
-0.0000000000000534
 20
25.5331022182018
 30
0.0
 10
1.211554297168203
 20
23.60183859024598
 30
0.0
 10
5.42929152438731
 20
21.76158702899457
 30
0.0
 10
12.39844540454914
 20
21.21270212696001
 30
0.0
 10
19.67559402537345
 20
21.95767067125021
 30
0.0
 10
25.03302413043765
 20
23.12672208874735
 30
0.0
 10
28.31177292156068
 20
24.90352261537801
 30
0.0
 10
31.93946020465802
 20
27.60925717048206
 30
0.0
 10
35.45245749812953
 20
32.81528018388192
 30
0.0
 10
40.08776121134289
 20
39.05641722086598
 30
0.0
 10
43.77210632853079
 20
44.45964663254964
 30
0.0
 10
47.12352762236917
 20
48.38680478693149
 30
0.0
 10
49.77229802188358
 20
50.00126240704464
 30
0.0
 10
52.26204573457852
 20
51.11574218731876
 30
0.0
 10
54.12147267468668
 20
51.05040137337257
 30
0.0
 10
54.94961010015414
 20
50.60991897732691
 30
0.0
 10
55.15765530788265
 20
50.49926071123738
 30
0.0
  0
SPLINE
  5
95
330
91
100
AcDbEntity
  8
ŃÂŔĐÍŰĹ_ŘÂŰ
370
    18
100
AcDbSpline
210
0.0
220
0.0
230
1.0
 70
     8
 71
     3
 72
    14
 73
    10
 74
     0
 42
0.00000001
 43
0.00000001
 40
0.0
 40
0.0
 40
0.0
 40
0.0
 40
0.2207994458043485
 40
0.4311218190892139
 40
0.4746744903800676
 40
0.515104386135457
 40
0.5951425155742867
 40
0.776056166943898
 40
1.0
 40
1.0
 40
1.0
 40
1.0
 10
50.28807213748003
 20
44.17772882410964
 30
0.0
 10
51.39351895648193
 20
45.31217281418862
 30
0.0
 10
53.55195844793241
 20
47.5272307137952
 30
0.0
 10
55.21574004382619
 20
49.04732742807474
 30
0.0
 10
57.18208425237547
 20
51.49213194151513
 30
0.0
 10
55.68974817217919
 20
50.57061064047182
 30
0.0
 10
54.66096095333082
 20
49.26033421963061
 30
0.0
 10
52.21376755818266
 20
46.73221590437475
 30
0.0
 10
50.5668248765266
 20
44.60033493962609
 30
0.0
 10
49.65583107959352
 20
43.42110122595923
 30
0.0
  0
SPLINE
  5
96
330
91
100
AcDbEntity
  8
ŃÂŔĐÍŰĹ_ŘÂŰ
370
    18
100
AcDbSpline
210
0.0
220
0.0
230
1.0
 70
     8
 71
     3
 72
    18
 73
    14
 74
     0
 42
0.00000001
 43
0.00000001
 40
0.0
 40
0.0
 40
0.0
 40
0.0
 40
0.1069693212910352
 40
0.2391715932352753
 40
0.3634284459916183
 40
0.5777730435385612
 40
0.6365292745293452
 40
0.6664507004307066
 40
0.7044912403838068
 40
0.7763088336010454
 40
0.8201568736141878
 40
0.9131245030464246
 40
1.0
 40
1.0
 40
1.0
 40
1.0
 10
49.65583107959352
 20
42.88772431862326
 30
0.0
 10
48.97253304019693
 20
41.98015595356332
 30
0.0
 10
47.44475405866647
 20
39.95093328278705
 30
0.0
 10
44.69590596404113
 20
37.20242438717663
 30
0.0
 10
41.68431862976643
 20
33.31104428423212
 30
0.0
 10
39.09173744384041
 20
29.48983904499976
 30
0.0
 10
37.73990441717069
 20
27.20377194795957
 30
0.0
 10
36.67763486101924
 20
25.44177380368763
 30
0.0
 10
37.04100627831499
 20
27.94085371924876
 30
0.0
 10
37.93534484590518
 20
28.86383081703889
 30
0.0
 10
39.01270675859251
 20
30.90778909884548
 30
0.0
 10
40.57164553779452
 20
32.68343747669179
 30
0.0
 10
41.98715615027042
 20
33.97090682917504
 30
0.0
 10
42.67093645576897
 20
34.59283518449918
 30
0.0
  0
SPLINE
  5
97
330
91
100
AcDbEntity
  8
ŃÂŔĐÍŰĹ_ŘÂŰ
370
    18
100
AcDbSpline
210
0.0
220
0.0
230
1.0
 70
     8
 71
     3
 72
    21
 73
    17
 74
     0
 42
0.00000001
 43
0.00000001
 40
0.0
 40
0.0
 40
0.0
 40
0.0
 40
0.0163919092986524
 40
0.0423168210067559
 40
0.0729571740637504
 40
0.0849394494543423
 40
0.145113824577361
 40
0.2417864802820599
 40
0.4812745122295612
 40
0.5301290448357946
 40
0.62058971231243
 40
0.7416702330690166
 40
0.8850568067189786
 40
0.9369963362923885
 40
0.9520811324696877
 40
1.0
 40
1.0
 40
1.0
 40
1.0
 10
43.86929131762457
 20
35.22197148697337
 30
0.0
 10
43.77102996073395
 20
34.96501363151204
 30
0.0
 10
43.51736163109263
 20
34.30165957203521
 30
0.0
 10
43.19692846575495
 20
33.27711157514614
 30
0.0
 10
42.85292410235328
 20
31.67807705064852
 30
0.0
 10
44.79094233829989
 20
31.49307006265401
 30
0.0
 10
46.86303771636548
 20
33.91495337869846
 30
0.0
 10
50.96812333366435
 20
36.88169907594251
 30
0.0
 10
61.84154634155416
 20
47.53387904023004
 30
0.0
 10
56.44832007283248
 20
41.89085371040288
 30
0.0
 10
53.61735174416533
 20
39.32669058655552
 30
0.0
 10
48.88786698370349
 20
34.69733014728406
 30
0.0
 10
47.35852429532056
 20
31.9043239859385
 30
0.0
 10
43.17841351517508
 20
27.02411946074306
 30
0.0
 10
45.43995219821913
 20
27.76530816933249
 30
0.0
 10
45.94998744012515
 20
28.6643994853702
 30
0.0
 10
46.3379063285585
 20
29.34822380820335
 30
0.0
  0
SPLINE
  5
98
330
91
100
AcDbEntity
  8
ŃÂŔĐÍŰĹ_ŘÂŰ
370
    18
100
AcDbSpline
210
0.0
220
0.0
230
1.0
 70
     8
 71
     3
 72
     9
 73
     5
 74
     0
 42
0.00000001
 43
0.00000001
 40
0.0
 40
0.0
 40
0.0
 40
0.0
 40
0.5140804331214801
 40
1.0
 40
1.0
 40
1.0
 40
1.0
 10
43.90298470941913
 20
35.32348075175096
 30
0.0
 10
43.64476565446791
 20
35.15840365867818
 30
0.0
 10
43.14247255339943
 20
34.83729224801732
 30
0.0
 10
42.64497079852774
 20
34.50880758243906
 30
0.0
 10
42.40322496127918
 20
34.34919045601504
 30
0.0
  0
SPLINE
  5
99
330
91
100
AcDbEntity
  8
ŃÂŔĐÍŰĹ_ŘÂŰ
370
    18
100
AcDbSpline
210
0.0
220
0.0
230
1.0
 70
     8
 71
     3
 72
    40
 73
    36
 74
     0
 42
0.00000001
 43
0.00000001
 40
0.0
 40
0.0
 40
0.0
 40
0.0
 40
0.0157467417940606
 40
0.0560736292139203
 40
0.0912151187137261
 40
0.1095455030021497
 40
0.1220165199319061
 40
0.1393034698214919
 40
0.1778299325767748
 40
0.23672297659432
 40
0.3117287417717996
 40
0.3246339619385045
 40
0.3437762316358098
 40
0.3714845590668228
 40
0.4148739572609131
 40
0.4375010122529631
 40
0.4675691198527884
 40
0.5112349879699318
 40
0.5390807151446766
 40
0.5643626875767773
 40
0.5893246444058573
 40
0.6262144027418555
 40
0.6580455294337678
 40
0.6869704876057394
 40
0.6978872461259171
 40
0.7119346617932378
 40
0.8130137963748275
 40
0.8648114777562771
 40
0.8873407565183001
 40
0.903639184464616
 40
0.9138771539900058
 40
0.9227647875376456
 40
0.9501439587153241
 40
0.9810502482496247
 40
1.0
 40
1.0
 40
1.0
 40
1.0
 10
60.44374548666102
 20
46.67013076041626
 30
0.0
 10
60.65012883700874
 20
47.12711307540073
 30
0.0
 10
61.38505315434841
 20
48.75441205717629
 30
0.0
 10
64.00897854829954
 20
50.3862415641414
 30
0.0
 10
66.83995246291288
 20
51.18646844935067
 30
0.0
 10
68.93148143421666
 20
51.38832121015632
 30
0.0
 10
70.4578011865142
 20
50.64195284908548
 30
0.0
 10
70.42308013093302
 20
48.15894991472884
 30
0.0
 10
68.1211516731102
 20
45.09928465290597
 30
0.0
 10
65.70271543588977
 20
41.84566331357153
 30
0.0
 10
55.65456583547773
 20
38.16481946888122
 30
0.0
 10
59.57264197424303
 20
39.32063210970924
 30
0.0
 10
61.17742423960431
 20
40.07081282483353
 30
0.0
 10
64.07652226345884
 20
40.49915592426387
 30
0.0
 10
67.0653824792404
 20
40.40317475666973
 30
0.0
 10
69.8609689709527
 20
38.60568542582526
 30
0.0
 10
69.71276626118971
 20
35.11059918180443
 30
0.0
 10
67.89434725645137
 20
32.51092644897906
 30
0.0
 10
66.29464053184488
 20
29.85688613113953
 30
0.0
 10
64.25172570283311
 20
28.4084539491677
 30
0.0
 10
61.69675756534834
 20
27.27524758024399
 30
0.0
 10
58.6596948376684
 20
27.46537456151415
 30
0.0
 10
55.63427135059523
 20
28.18718459867377
 30
0.0
 10
53.91686624078728
 20
30.05323079225813
 30
0.0
 10
53.90920113606568
 20
31.87210240064826
 30
0.0
 10
56.5099668397129
 20
34.82144011828837
 30
0.0
 10
66.06343887816652
 20
40.39977207476476
 30
0.0
 10
61.43474346299804
 20
33.42150981174355
 30
0.0
 10
59.45982157675023
 20
31.47658360937604
 30
0.0
 10
59.31931303832222
 20
29.87298258259763
 30
0.0
 10
59.67744984488613
 20
28.6626112337128
 30
0.0
 10
61.30502751667508
 20
28.42395982771443
 30
0.0
 10
63.17029696798687
 20
29.53734273859541
 30
0.0
 10
65.39663130021104
 20
30.50770954008287
 30
0.0
 10
66.70737255996325
 20
31.38396015844189
 30
0.0
 10
67.20557139086225
 20
31.71701371145474
 30
0.0
  0
SPLINE
  5
9A
330
91
100
AcDbEntity
  8
ŃÂŔĐÍŰĹ_ŘÂŰ
370
    18
100
AcDbSpline
210
0.0
220
0.0
230
1.0
 70
     8
 71
     3
 72
    27
 73
    23
 74
     0
 42
0.00000001
 43
0.00000001
 40
0.0
 40
0.0
 40
0.0
 40
0.0
 40
0.0900410655500375
 40
0.1372337675882049
 40
0.1526001960063904
 40
0.1871338607287755
 40
0.2609866691283696
 40
0.3094995959731781
 40
0.3294080968352356
 40
0.346693743473374
 40
0.3693165680729453
 40
0.3957668634597811
 40
0.4523221097944827
 40
0.5242027783823214
 40
0.6502101340924475
 40
0.7602271993662366
 40
0.7754308302060811
 40
0.7899940180770335
 40
0.8181638052315088
 40
0.8840721235099649
 40
0.9679603255540619
 40
1.0
 40
1.0
 40
1.0
 40
1.0
 10
67.76005636706206
 20
32.01369318956255
 30
0.0
 10
68.5587186966771
 20
32.83091976986814
 30
0.0
 10
69.7759792861016
 20
34.07647458314651
 30
0.0
 10
73.4722830618294
 20
36.29000204287802
 30
0.0
 10
71.53821413892548
 20
36.66765970027667
 30
0.0
 10
69.93348161629918
 20
35.54360621346475
 30
0.0
 10
67.46177131353419
 20
34.52384051951912
 30
0.0
 10
66.46348437069044
 20
32.43376367360978
 30
0.0
 10
65.79771509401526
 20
31.17504008652797
 30
0.0
 10
65.99160872733276
 20
30.22502825964176
 30
0.0
 10
66.4108562293453
 20
29.10488135452938
 30
0.0
 10
68.3348979954159
 20
29.13210497006009
 30
0.0
 10
70.66968733727514
 20
29.43370072654236
 30
0.0
 10
74.58945342921955
 20
30.71589566374825
 30
0.0
 10
79.06313849017248
 20
33.02865527939079
 30
0.0
 10
82.33088440802635
 20
34.64950300059966
 30
0.0
 10
83.95767636949438
 20
36.91944966892132
 30
0.0
 10
82.85909856071262
 20
37.43332871976434
 30
0.0
 10
81.21407474443801
 20
36.85673288167555
 30
0.0
 10
78.93697724437861
 20
35.14132101497624
 30
0.0
 10
76.46450059579408
 20
33.44411494161436
 30
0.0
 10
75.60955765014701
 20
31.78602960980407
 30
0.0
 10
75.37327200015723
 20
31.32777473752274
 30
0.0
  0
SPLINE
  5
9B
330
91
100
AcDbEntity
  8
ŃÂŔĐÍŰĹ_ŘÂŰ
370
    18
100
AcDbSpline
210
0.0
220
0.0
230
1.0
 70
     8
 71
     3
 72
    17
 73
    13
 74
     0
 42
0.00000001
 43
0.00000001
 40
0.0
 40
0.0
 40
0.0
 40
0.0
 40
0.0388397495177415
 40
0.0787650626200988
 40
0.1642899484539318
 40
0.4415256755754027
 40
0.6447106237643446
 40
0.6565043493345492
 40
0.6979336255194358
 40
0.7803581729142126
 40
0.9292134610436814
 40
1.0
 40
1.0
 40
1.0
 40
1.0
 10
75.02248146644328
 20
31.32777473752274
 30
0.0
 10
74.86383870189454
 20
30.92108524223783
 30
0.0
 10
74.54211913781236
 20
30.09633935791073
 30
0.0
 10
76.27926374418539
 20
29.12158115961133
 30
0.0
 10
80.16924624302571
 20
30.23247643867233
 30
0.0
 10
85.29784576290292
 20
33.12411550899092
 30
0.0
 10
88.57551022043205
 20
35.7627345468639
 30
0.0
 10
90.96755226939928
 20
37.68192645256793
 30
0.0
 10
88.45318067339494
 20
37.37308926781738
 30
0.0
 10
86.91433168079342
 20
36.12582798294522
 30
0.0
 10
84.23355631509607
 20
34.16917343844758
 30
0.0
 10
82.83964814993755
 20
32.5390516064644
 30
0.0
 10
82.39041707248897
 20
32.01369318956255
 30
0.0
  0
SPLINE
  5
9C
330
91
100
AcDbEntity
  8
ŃÂŔĐÍŰĹ_ŘÂŰ
370
    18
100
AcDbSpline
210
0.0
220
0.0
230
1.0
 70
     8
 71
     3
 72
    17
 73
    13
 74
     0
 42
0.00000001
 43
0.00000001
 40
0.0
 40
0.0
 40
0.0
 40
0.0
 40
0.0503216730391286
 40
0.0880656492398536
 40
0.2235362072284998
 40
0.4697560417260305
 40
0.6658756726455198
 40
0.6902762154872811
 40
0.758556074677462
 40
0.8508208470294505
 40
0.942429751049402
 40
1.0
 40
1.0
 40
1.0
 40
1.0
 10
81.87092226611168
 20
30.98167657745307
 30
0.0
 10
81.65737267288479
 20
30.38353744376132
 30
0.0
 10
81.28364933586839
 20
29.33676161213567
 30
0.0
 10
84.03386066964187
 20
28.93519871223828
 30
0.0
 10
87.4966712239493
 20
31.11571350830602
 30
0.0
 10
92.85265943504791
 20
34.22743234494352
 30
0.0
 10
95.5329342403375
 20
37.06654958777048
 30
0.0
 10
97.98151827992587
 20
39.91595570013818
 30
0.0
 10
94.94603501804357
 20
37.85322922431033
 30
0.0
 10
93.91879205487062
 20
36.39296162195193
 30
0.0
 10
91.69627021013234
 20
34.91421071583238
 30
0.0
 10
90.83680653005281
 20
33.70115260115175
 30
0.0
 10
90.50512789372256
 20
33.23301709921942
 30
0.0
  0
SPLINE
  5
9D
330
91
100
AcDbEntity
  8
ŃÂŔĐÍŰĹ_ŘÂŰ
370
    18
100
AcDbSpline
210
0.0
220
0.0
230
1.0
 70
     8
 71
     3
 72
    25
 73
    21
 74
     0
 42
0.00000001
 43
0.00000001
 40
0.0
 40
0.0
 40
0.0
 40
0.0
 40
0.0207906731835314
 40
0.0428928890012764
 40
0.0601319765010676
 40
0.0750841631981631
 40
0.1099936596645201
 40
0.208425984705952
 40
0.3266660667026191
 40
0.4360618005665356
 40
0.5068576391578564
 40
0.5520647100714824
 40
0.5543860501499989
 40
0.5854778561693593
 40
0.6493521479606164
 40
0.7289224791837312
 40
0.8173170831152841
 40
0.9562090009889983
 40
0.9926195946776141
 40
1.0
 40
1.0
 40
1.0
 40
1.0
 10
90.50512789372256
 20
33.13479784148861
 30
0.0
 10
90.185312047483
 20
32.6641173107377
 30
0.0
 10
89.5255053412495
 20
31.69306420522532
 30
0.0
 10
88.4010208069988
 20
30.29746946287755
 30
0.0
 10
88.80672569673656
 20
28.66522010316438
 30
0.0
 10
90.46628827383877
 20
27.4523660871085
 30
0.0
 10
94.56218930522417
 20
29.93484154515017
 30
0.0
 10
100.0995925993995
 20
33.45606887786256
 30
0.0
 10
105.7429189911287
 20
40.86639091932518
 30
0.0
 10
111.1025325964307
 20
47.20899459774137
 30
0.0
 10
115.2213873753671
 20
51.66681990110488
 30
0.0
 10
118.1220314884571
 20
53.87438208534707
 30
0.0
 10
118.2853860988238
 20
56.19504421135938
 30
0.0
 10
114.60756834478
 20
52.21321051398097
 30
0.0
 10
111.8459452506178
 20
50.829765975886
 30
0.0
 10
107.2046804827963
 20
45.28400893412009
 30
0.0
 10
101.288840809955
 20
39.6079325794835
 30
0.0
 10
95.51297542675212
 20
34.63470569056412
 30
0.0
 10
93.30743065305435
 20
30.04681099151652
 30
0.0
 10
92.70575504392201
 20
28.99112838402379
 30
0.0
 10
92.60435041812494
 20
28.81320676289036
 30
0.0
  0
SPLINE
  5
9E
330
91
100
AcDbEntity
  8
ŃÂŔĐÍŰĹ_ŘÂŰ
370
    18
100
AcDbSpline
210
0.0
220
0.0
230
1.0
 70
     8
 71
     3
 72
    18
 73
    14
 74
     0
 42
0.00000001
 43
0.00000001
 40
0.0
 40
0.0
 40
0.0
 40
0.0
 40
0.106170496195255
 40
0.3231930700396317
 40
0.5808838993421802
 40
0.6656014265323386
 40
0.6713430273180346
 40
0.716975340697285
 40
0.811934363941725
 40
0.8707139978248174
 40
0.8738740105193448
 40
0.9039625364287538
 40
1.0
 40
1.0
 40
1.0
 40
1.0
 10
92.03364001939241
 20
27.97392676475427
 30
0.0
 10
91.28326325268623
 20
26.51377554107787
 30
0.0
 10
88.99904513551574
 20
22.06893659227778
 30
0.0
 10
85.48366010380461
 20
13.79074852040923
 30
0.0
 10
81.67710844554779
 20
6.048618632106044
 30
0.0
 10
79.28126449923246
 20
1.19459471502369
 30
0.0
 10
77.65657613387106
 20
-0.271711924819474
 30
0.0
 10
75.46683638032665
 20
2.174564221794517
 30
0.0
 10
73.52508225901627
 20
3.578099884154294
 30
0.0
 10
70.90116889744014
 20
4.741960482937032
 30
0.0
 10
70.5082821217603
 20
6.154322970470811
 30
0.0
 10
72.94028707773711
 20
7.269159591613136
 30
0.0
 10
74.32153420239386
 20
8.327797690893213
 30
0.0
 10
75.37327200015723
 20
9.133887841808045
 30
0.0
  0
SPLINE
  5
9F
330
91
100
AcDbEntity
  8
ŃÂŔĐÍŰĹ_ŘÂŰ
370
    18
100
AcDbSpline
210
0.0
220
0.0
230
1.0
 70
     8
 71
     3
 72
    11
 73
     7
 74
     0
 42
0.00000001
 43
0.00000001
 40
0.0
 40
0.0
 40
0.0
 40
0.0
 40
0.196774613449984
 40
0.52510893696727
 40
0.8810014884369961
 40
1.0
 40
1.0
 40
1.0
 40
1.0
 10
104.6840557017495
 20
25.97336741546525
 30
0.0
 10
106.0212353284779
 20
26.30824422089434
 30
0.0
 10
109.5896070813928
 20
27.20189000289234
 30
0.0
 10
115.7671939913894
 20
27.73569254838638
 30
0.0
 10
121.1330307735553
 20
29.52202828372751
 30
0.0
 10
124.4045484974234
 20
30.11664554453901
 30
0.0
 10
125.224327537286
 20
30.26564512464136
 30
0.0
  0
ENDBLK
  5
93
330
91
100
AcDbEntity
  8
0
100
AcDbBlockEnd
  0
BLOCK
  5
A1
330
A0
100
AcDbEntity
  8
0
100
AcDbBlockBegin
  2
Đîńďčńü Ë¸âęčí__1
 70
     0
 10
0.0
 20
0.0
 30
0.0
  3
Đîńďčńü Ë¸âęčí__1
  1

  0
SPLINE
  5
A3
330
A0
100
AcDbEntity
  8
ŃÂŔĐÍŰĹ_ŘÂŰ
370
    18
100
AcDbSpline
210
0.0
220
0.0
230
1.0
 70
     8
 71
     3
 72
    36
 73
    32
 74
     0
 42
0.00000001
 43
0.00000001
 40
0.0
 40
0.0
 40
0.0
 40
0.0
 40
0.0061142623445803
 40
0.0116230529114703
 40
0.0299171156598356
 40
0.0932677807150905
 40
0.1257229021548877
 40
0.1320067894344666
 40
0.1387951832070516
 40
0.1446648750578494
 40
0.1789172646585662
 40
0.2157807909842753
 40
0.2607239725415278
 40
0.2901141776790192
 40
0.3236435125998064
 40
0.3363216247751377
 40
0.351717867103377
 40
0.3845792179091559
 40
0.4650294148190242
 40
0.5516031557363962
 40
0.5960642923758462
 40
0.6219607954467598
 40
0.6588878812442899
 40
0.7257232590350844
 40
0.801354826361658
 40
0.8842831264888853
 40
0.9149424655844142
 40
0.949460885676607
 40
0.9729645654136001
 40
0.9932081410263721
 40
1.0
 40
1.0
 40
1.0
 40
1.0
 10
9.310063022118259
 20
25.97336741546525
 30
0.0
 10
9.092666827590897
 20
25.93602909317239
 30
0.0
 10
8.679402343775676
 20
25.8650499183877
 30
0.0
 10
7.780929807652678
 20
26.72425767588553
 30
0.0
 10
11.16511092435023
 20
29.28171212943616
 30
0.0
 10
12.65916033803801
 20
31.9270653664931
 30
0.0
 10
16.12919890461792
 20
34.19158792041851
 30
0.0
 10
16.41374019775163
 20
35.64516966794196
 30
0.0
 10
16.48398289493096
 20
36.53342127290878
 30
0.0
 10
14.49919959461606
 20
36.12032729199279
 30
0.0
 10
12.204803526511
 20
35.75268335126288
 30
0.0
 10
8.51868137595707
 20
33.78004822029193
 30
0.0
 10
4.898994546200158
 20
32.40327665632542
 30
0.0
 10
2.248626517120074
 20
29.72345378432832
 30
0.0
 10
0.4837913770575964
 20
27.72956241319823
 30
0.0
 10
-0.0000000000000534
 20
25.5331022182018
 30
0.0
 10
1.211554297168203
 20
23.60183859024598
 30
0.0
 10
5.42929152438731
 20
21.76158702899457
 30
0.0
 10
12.39844540454914
 20
21.21270212696001
 30
0.0
 10
19.67559402537345
 20
21.95767067125021
 30
0.0
 10
25.03302413043765
 20
23.12672208874735
 30
0.0
 10
28.31177292156068
 20
24.90352261537801
 30
0.0
 10
31.93946020465802
 20
27.60925717048206
 30
0.0
 10
35.45245749812953
 20
32.81528018388192
 30
0.0
 10
40.08776121134289
 20
39.05641722086598
 30
0.0
 10
43.77210632853079
 20
44.45964663254964
 30
0.0
 10
47.12352762236917
 20
48.38680478693149
 30
0.0
 10
49.77229802188358
 20
50.00126240704464
 30
0.0
 10
52.26204573457852
 20
51.11574218731876
 30
0.0
 10
54.12147267468668
 20
51.05040137337257
 30
0.0
 10
54.94961010015414
 20
50.60991897732691
 30
0.0
 10
55.15765530788265
 20
50.49926071123738
 30
0.0
  0
SPLINE
  5
A4
330
A0
100
AcDbEntity
  8
ŃÂŔĐÍŰĹ_ŘÂŰ
370
    18
100
AcDbSpline
210
0.0
220
0.0
230
1.0
 70
     8
 71
     3
 72
    14
 73
    10
 74
     0
 42
0.00000001
 43
0.00000001
 40
0.0
 40
0.0
 40
0.0
 40
0.0
 40
0.2207994458043485
 40
0.4311218190892139
 40
0.4746744903800676
 40
0.515104386135457
 40
0.5951425155742867
 40
0.776056166943898
 40
1.0
 40
1.0
 40
1.0
 40
1.0
 10
50.28807213748003
 20
44.17772882410964
 30
0.0
 10
51.39351895648193
 20
45.31217281418862
 30
0.0
 10
53.55195844793241
 20
47.5272307137952
 30
0.0
 10
55.21574004382619
 20
49.04732742807474
 30
0.0
 10
57.18208425237547
 20
51.49213194151513
 30
0.0
 10
55.68974817217919
 20
50.57061064047182
 30
0.0
 10
54.66096095333082
 20
49.26033421963061
 30
0.0
 10
52.21376755818266
 20
46.73221590437475
 30
0.0
 10
50.5668248765266
 20
44.60033493962609
 30
0.0
 10
49.65583107959352
 20
43.42110122595923
 30
0.0
  0
SPLINE
  5
A5
330
A0
100
AcDbEntity
  8
ŃÂŔĐÍŰĹ_ŘÂŰ
370
    18
100
AcDbSpline
210
0.0
220
0.0
230
1.0
 70
     8
 71
     3
 72
    18
 73
    14
 74
     0
 42
0.00000001
 43
0.00000001
 40
0.0
 40
0.0
 40
0.0
 40
0.0
 40
0.1069693212910352
 40
0.2391715932352753
 40
0.3634284459916183
 40
0.5777730435385612
 40
0.6365292745293452
 40
0.6664507004307066
 40
0.7044912403838068
 40
0.7763088336010454
 40
0.8201568736141878
 40
0.9131245030464246
 40
1.0
 40
1.0
 40
1.0
 40
1.0
 10
49.65583107959352
 20
42.88772431862326
 30
0.0
 10
48.97253304019693
 20
41.98015595356332
 30
0.0
 10
47.44475405866647
 20
39.95093328278705
 30
0.0
 10
44.69590596404113
 20
37.20242438717663
 30
0.0
 10
41.68431862976643
 20
33.31104428423212
 30
0.0
 10
39.09173744384041
 20
29.48983904499976
 30
0.0
 10
37.73990441717069
 20
27.20377194795957
 30
0.0
 10
36.67763486101924
 20
25.44177380368763
 30
0.0
 10
37.04100627831499
 20
27.94085371924876
 30
0.0
 10
37.93534484590518
 20
28.86383081703889
 30
0.0
 10
39.01270675859251
 20
30.90778909884548
 30
0.0
 10
40.57164553779452
 20
32.68343747669179
 30
0.0
 10
41.98715615027042
 20
33.97090682917504
 30
0.0
 10
42.67093645576897
 20
34.59283518449918
 30
0.0
  0
SPLINE
  5
A6
330
A0
100
AcDbEntity
  8
ŃÂŔĐÍŰĹ_ŘÂŰ
370
    18
100
AcDbSpline
210
0.0
220
0.0
230
1.0
 70
     8
 71
     3
 72
    21
 73
    17
 74
     0
 42
0.00000001
 43
0.00000001
 40
0.0
 40
0.0
 40
0.0
 40
0.0
 40
0.0163919092986524
 40
0.0423168210067559
 40
0.0729571740637504
 40
0.0849394494543423
 40
0.145113824577361
 40
0.2417864802820599
 40
0.4812745122295612
 40
0.5301290448357946
 40
0.62058971231243
 40
0.7416702330690166
 40
0.8850568067189786
 40
0.9369963362923885
 40
0.9520811324696877
 40
1.0
 40
1.0
 40
1.0
 40
1.0
 10
43.86929131762457
 20
35.22197148697337
 30
0.0
 10
43.77102996073395
 20
34.96501363151204
 30
0.0
 10
43.51736163109263
 20
34.30165957203521
 30
0.0
 10
43.19692846575495
 20
33.27711157514614
 30
0.0
 10
42.85292410235328
 20
31.67807705064852
 30
0.0
 10
44.79094233829989
 20
31.49307006265401
 30
0.0
 10
46.86303771636548
 20
33.91495337869846
 30
0.0
 10
50.96812333366435
 20
36.88169907594251
 30
0.0
 10
61.84154634155416
 20
47.53387904023004
 30
0.0
 10
56.44832007283248
 20
41.89085371040288
 30
0.0
 10
53.61735174416533
 20
39.32669058655552
 30
0.0
 10
48.88786698370349
 20
34.69733014728406
 30
0.0
 10
47.35852429532056
 20
31.9043239859385
 30
0.0
 10
43.17841351517508
 20
27.02411946074306
 30
0.0
 10
45.43995219821913
 20
27.76530816933249
 30
0.0
 10
45.94998744012515
 20
28.6643994853702
 30
0.0
 10
46.3379063285585
 20
29.34822380820335
 30
0.0
  0
SPLINE
  5
A7
330
A0
100
AcDbEntity
  8
ŃÂŔĐÍŰĹ_ŘÂŰ
370
    18
100
AcDbSpline
210
0.0
220
0.0
230
1.0
 70
     8
 71
     3
 72
     9
 73
     5
 74
     0
 42
0.00000001
 43
0.00000001
 40
0.0
 40
0.0
 40
0.0
 40
0.0
 40
0.5140804331214801
 40
1.0
 40
1.0
 40
1.0
 40
1.0
 10
43.90298470941913
 20
35.32348075175096
 30
0.0
 10
43.64476565446791
 20
35.15840365867818
 30
0.0
 10
43.14247255339943
 20
34.83729224801732
 30
0.0
 10
42.64497079852774
 20
34.50880758243906
 30
0.0
 10
42.40322496127918
 20
34.34919045601504
 30
0.0
  0
SPLINE
  5
A8
330
A0
100
AcDbEntity
  8
ŃÂŔĐÍŰĹ_ŘÂŰ
370
    18
100
AcDbSpline
210
0.0
220
0.0
230
1.0
 70
     8
 71
     3
 72
    40
 73
    36
 74
     0
 42
0.00000001
 43
0.00000001
 40
0.0
 40
0.0
 40
0.0
 40
0.0
 40
0.0157467417940606
 40
0.0560736292139203
 40
0.0912151187137261
 40
0.1095455030021497
 40
0.1220165199319061
 40
0.1393034698214919
 40
0.1778299325767748
 40
0.23672297659432
 40
0.3117287417717996
 40
0.3246339619385045
 40
0.3437762316358098
 40
0.3714845590668228
 40
0.4148739572609131
 40
0.4375010122529631
 40
0.4675691198527884
 40
0.5112349879699318
 40
0.5390807151446766
 40
0.5643626875767773
 40
0.5893246444058573
 40
0.6262144027418555
 40
0.6580455294337678
 40
0.6869704876057394
 40
0.6978872461259171
 40
0.7119346617932378
 40
0.8130137963748275
 40
0.8648114777562771
 40
0.8873407565183001
 40
0.903639184464616
 40
0.9138771539900058
 40
0.9227647875376456
 40
0.9501439587153241
 40
0.9810502482496247
 40
1.0
 40
1.0
 40
1.0
 40
1.0
 10
60.44374548666102
 20
46.67013076041626
 30
0.0
 10
60.65012883700874
 20
47.12711307540073
 30
0.0
 10
61.38505315434841
 20
48.75441205717629
 30
0.0
 10
64.00897854829954
 20
50.3862415641414
 30
0.0
 10
66.83995246291288
 20
51.18646844935067
 30
0.0
 10
68.93148143421666
 20
51.38832121015632
 30
0.0
 10
70.4578011865142
 20
50.64195284908548
 30
0.0
 10
70.42308013093302
 20
48.15894991472884
 30
0.0
 10
68.1211516731102
 20
45.09928465290597
 30
0.0
 10
65.70271543588977
 20
41.84566331357153
 30
0.0
 10
55.65456583547773
 20
38.16481946888122
 30
0.0
 10
59.57264197424303
 20
39.32063210970924
 30
0.0
 10
61.17742423960431
 20
40.07081282483353
 30
0.0
 10
64.07652226345884
 20
40.49915592426387
 30
0.0
 10
67.0653824792404
 20
40.40317475666973
 30
0.0
 10
69.8609689709527
 20
38.60568542582526
 30
0.0
 10
69.71276626118971
 20
35.11059918180443
 30
0.0
 10
67.89434725645137
 20
32.51092644897906
 30
0.0
 10
66.29464053184488
 20
29.85688613113953
 30
0.0
 10
64.25172570283311
 20
28.4084539491677
 30
0.0
 10
61.69675756534834
 20
27.27524758024399
 30
0.0
 10
58.6596948376684
 20
27.46537456151415
 30
0.0
 10
55.63427135059523
 20
28.18718459867377
 30
0.0
 10
53.91686624078728
 20
30.05323079225813
 30
0.0
 10
53.90920113606568
 20
31.87210240064826
 30
0.0
 10
56.5099668397129
 20
34.82144011828837
 30
0.0
 10
66.06343887816652
 20
40.39977207476476
 30
0.0
 10
61.43474346299804
 20
33.42150981174355
 30
0.0
 10
59.45982157675023
 20
31.47658360937604
 30
0.0
 10
59.31931303832222
 20
29.87298258259763
 30
0.0
 10
59.67744984488613
 20
28.6626112337128
 30
0.0
 10
61.30502751667508
 20
28.42395982771443
 30
0.0
 10
63.17029696798687
 20
29.53734273859541
 30
0.0
 10
65.39663130021104
 20
30.50770954008287
 30
0.0
 10
66.70737255996325
 20
31.38396015844189
 30
0.0
 10
67.20557139086225
 20
31.71701371145474
 30
0.0
  0
SPLINE
  5
A9
330
A0
100
AcDbEntity
  8
ŃÂŔĐÍŰĹ_ŘÂŰ
370
    18
100
AcDbSpline
210
0.0
220
0.0
230
1.0
 70
     8
 71
     3
 72
    27
 73
    23
 74
     0
 42
0.00000001
 43
0.00000001
 40
0.0
 40
0.0
 40
0.0
 40
0.0
 40
0.0900410655500375
 40
0.1372337675882049
 40
0.1526001960063904
 40
0.1871338607287755
 40
0.2609866691283696
 40
0.3094995959731781
 40
0.3294080968352356
 40
0.346693743473374
 40
0.3693165680729453
 40
0.3957668634597811
 40
0.4523221097944827
 40
0.5242027783823214
 40
0.6502101340924475
 40
0.7602271993662366
 40
0.7754308302060811
 40
0.7899940180770335
 40
0.8181638052315088
 40
0.8840721235099649
 40
0.9679603255540619
 40
1.0
 40
1.0
 40
1.0
 40
1.0
 10
67.76005636706206
 20
32.01369318956255
 30
0.0
 10
68.5587186966771
 20
32.83091976986814
 30
0.0
 10
69.7759792861016
 20
34.07647458314651
 30
0.0
 10
73.4722830618294
 20
36.29000204287802
 30
0.0
 10
71.53821413892548
 20
36.66765970027667
 30
0.0
 10
69.93348161629918
 20
35.54360621346475
 30
0.0
 10
67.46177131353419
 20
34.52384051951912
 30
0.0
 10
66.46348437069044
 20
32.43376367360978
 30
0.0
 10
65.79771509401526
 20
31.17504008652797
 30
0.0
 10
65.99160872733276
 20
30.22502825964176
 30
0.0
 10
66.4108562293453
 20
29.10488135452938
 30
0.0
 10
68.3348979954159
 20
29.13210497006009
 30
0.0
 10
70.66968733727514
 20
29.43370072654236
 30
0.0
 10
74.58945342921955
 20
30.71589566374825
 30
0.0
 10
79.06313849017248
 20
33.02865527939079
 30
0.0
 10
82.33088440802635
 20
34.64950300059966
 30
0.0
 10
83.95767636949438
 20
36.91944966892132
 30
0.0
 10
82.85909856071262
 20
37.43332871976434
 30
0.0
 10
81.21407474443801
 20
36.85673288167555
 30
0.0
 10
78.93697724437861
 20
35.14132101497624
 30
0.0
 10
76.46450059579408
 20
33.44411494161436
 30
0.0
 10
75.60955765014701
 20
31.78602960980407
 30
0.0
 10
75.37327200015723
 20
31.32777473752274
 30
0.0
  0
SPLINE
  5
AA
330
A0
100
AcDbEntity
  8
ŃÂŔĐÍŰĹ_ŘÂŰ
370
    18
100
AcDbSpline
210
0.0
220
0.0
230
1.0
 70
     8
 71
     3
 72
    17
 73
    13
 74
     0
 42
0.00000001
 43
0.00000001
 40
0.0
 40
0.0
 40
0.0
 40
0.0
 40
0.0388397495177415
 40
0.0787650626200988
 40
0.1642899484539318
 40
0.4415256755754027
 40
0.6447106237643446
 40
0.6565043493345492
 40
0.6979336255194358
 40
0.7803581729142126
 40
0.9292134610436814
 40
1.0
 40
1.0
 40
1.0
 40
1.0
 10
75.02248146644328
 20
31.32777473752274
 30
0.0
 10
74.86383870189454
 20
30.92108524223783
 30
0.0
 10
74.54211913781236
 20
30.09633935791073
 30
0.0
 10
76.27926374418539
 20
29.12158115961133
 30
0.0
 10
80.16924624302571
 20
30.23247643867233
 30
0.0
 10
85.29784576290292
 20
33.12411550899092
 30
0.0
 10
88.57551022043205
 20
35.7627345468639
 30
0.0
 10
90.96755226939928
 20
37.68192645256793
 30
0.0
 10
88.45318067339494
 20
37.37308926781738
 30
0.0
 10
86.91433168079342
 20
36.12582798294522
 30
0.0
 10
84.23355631509607
 20
34.16917343844758
 30
0.0
 10
82.83964814993755
 20
32.5390516064644
 30
0.0
 10
82.39041707248897
 20
32.01369318956255
 30
0.0
  0
SPLINE
  5
AB
330
A0
100
AcDbEntity
  8
ŃÂŔĐÍŰĹ_ŘÂŰ
370
    18
100
AcDbSpline
210
0.0
220
0.0
230
1.0
 70
     8
 71
     3
 72
    17
 73
    13
 74
     0
 42
0.00000001
 43
0.00000001
 40
0.0
 40
0.0
 40
0.0
 40
0.0
 40
0.0503216730391286
 40
0.0880656492398536
 40
0.2235362072284998
 40
0.4697560417260305
 40
0.6658756726455198
 40
0.6902762154872811
 40
0.758556074677462
 40
0.8508208470294505
 40
0.942429751049402
 40
1.0
 40
1.0
 40
1.0
 40
1.0
 10
81.87092226611168
 20
30.98167657745307
 30
0.0
 10
81.65737267288479
 20
30.38353744376132
 30
0.0
 10
81.28364933586839
 20
29.33676161213567
 30
0.0
 10
84.03386066964187
 20
28.93519871223828
 30
0.0
 10
87.4966712239493
 20
31.11571350830602
 30
0.0
 10
92.85265943504791
 20
34.22743234494352
 30
0.0
 10
95.5329342403375
 20
37.06654958777048
 30
0.0
 10
97.98151827992587
 20
39.91595570013818
 30
0.0
 10
94.94603501804357
 20
37.85322922431033
 30
0.0
 10
93.91879205487062
 20
36.39296162195193
 30
0.0
 10
91.69627021013234
 20
34.91421071583238
 30
0.0
 10
90.83680653005281
 20
33.70115260115175
 30
0.0
 10
90.50512789372256
 20
33.23301709921942
 30
0.0
  0
SPLINE
  5
AC
330
A0
100
AcDbEntity
  8
ŃÂŔĐÍŰĹ_ŘÂŰ
370
    18
100
AcDbSpline
210
0.0
220
0.0
230
1.0
 70
     8
 71
     3
 72
    25
 73
    21
 74
     0
 42
0.00000001
 43
0.00000001
 40
0.0
 40
0.0
 40
0.0
 40
0.0
 40
0.0207906731835314
 40
0.0428928890012764
 40
0.0601319765010676
 40
0.0750841631981631
 40
0.1099936596645201
 40
0.208425984705952
 40
0.3266660667026191
 40
0.4360618005665356
 40
0.5068576391578564
 40
0.5520647100714824
 40
0.5543860501499989
 40
0.5854778561693593
 40
0.6493521479606164
 40
0.7289224791837312
 40
0.8173170831152841
 40
0.9562090009889983
 40
0.9926195946776141
 40
1.0
 40
1.0
 40
1.0
 40
1.0
 10
90.50512789372256
 20
33.13479784148861
 30
0.0
 10
90.185312047483
 20
32.6641173107377
 30
0.0
 10
89.5255053412495
 20
31.69306420522532
 30
0.0
 10
88.4010208069988
 20
30.29746946287755
 30
0.0
 10
88.80672569673656
 20
28.66522010316438
 30
0.0
 10
90.46628827383877
 20
27.4523660871085
 30
0.0
 10
94.56218930522417
 20
29.93484154515017
 30
0.0
 10
100.0995925993995
 20
33.45606887786256
 30
0.0
 10
105.7429189911287
 20
40.86639091932518
 30
0.0
 10
111.1025325964307
 20
47.20899459774137
 30
0.0
 10
115.2213873753671
 20
51.66681990110488
 30
0.0
 10
118.1220314884571
 20
53.87438208534707
 30
0.0
 10
118.2853860988238
 20
56.19504421135938
 30
0.0
 10
114.60756834478
 20
52.21321051398097
 30
0.0
 10
111.8459452506178
 20
50.829765975886
 30
0.0
 10
107.2046804827963
 20
45.28400893412009
 30
0.0
 10
101.288840809955
 20
39.6079325794835
 30
0.0
 10
95.51297542675212
 20
34.63470569056412
 30
0.0
 10
93.30743065305435
 20
30.04681099151652
 30
0.0
 10
92.70575504392201
 20
28.99112838402379
 30
0.0
 10
92.60435041812494
 20
28.81320676289036
 30
0.0
  0
SPLINE
  5
AD
330
A0
100
AcDbEntity
  8
ŃÂŔĐÍŰĹ_ŘÂŰ
370
    18
100
AcDbSpline
210
0.0
220
0.0
230
1.0
 70
     8
 71
     3
 72
    18
 73
    14
 74
     0
 42
0.00000001
 43
0.00000001
 40
0.0
 40
0.0
 40
0.0
 40
0.0
 40
0.106170496195255
 40
0.3231930700396317
 40
0.5808838993421802
 40
0.6656014265323386
 40
0.6713430273180346
 40
0.716975340697285
 40
0.811934363941725
 40
0.8707139978248174
 40
0.8738740105193448
 40
0.9039625364287538
 40
1.0
 40
1.0
 40
1.0
 40
1.0
 10
92.03364001939241
 20
27.97392676475427
 30
0.0
 10
91.28326325268623
 20
26.51377554107787
 30
0.0
 10
88.99904513551574
 20
22.06893659227778
 30
0.0
 10
85.48366010380461
 20
13.79074852040923
 30
0.0
 10
81.67710844554779
 20
6.048618632106044
 30
0.0
 10
79.28126449923246
 20
1.19459471502369
 30
0.0
 10
77.65657613387106
 20
-0.271711924819474
 30
0.0
 10
75.46683638032665
 20
2.174564221794517
 30
0.0
 10
73.52508225901627
 20
3.578099884154294
 30
0.0
 10
70.90116889744014
 20
4.741960482937032
 30
0.0
 10
70.5082821217603
 20
6.154322970470811
 30
0.0
 10
72.94028707773711
 20
7.269159591613136
 30
0.0
 10
74.32153420239386
 20
8.327797690893213
 30
0.0
 10
75.37327200015723
 20
9.133887841808045
 30
0.0
  0
SPLINE
  5
AE
330
A0
100
AcDbEntity
  8
ŃÂŔĐÍŰĹ_ŘÂŰ
370
    18
100
AcDbSpline
210
0.0
220
0.0
230
1.0
 70
     8
 71
     3
 72
    11
 73
     7
 74
     0
 42
0.00000001
 43
0.00000001
 40
0.0
 40
0.0
 40
0.0
 40
0.0
 40
0.196774613449984
 40
0.52510893696727
 40
0.8810014884369961
 40
1.0
 40
1.0
 40
1.0
 40
1.0
 10
104.6840557017495
 20
25.97336741546525
 30
0.0
 10
106.0212353284779
 20
26.30824422089434
 30
0.0
 10
109.5896070813928
 20
27.20189000289234
 30
0.0
 10
115.7671939913894
 20
27.73569254838638
 30
0.0
 10
121.1330307735553
 20
29.52202828372751
 30
0.0
 10
124.4045484974234
 20
30.11664554453901
 30
0.0
 10
125.224327537286
 20
30.26564512464136
 30
0.0
  0
ENDBLK
  5
A2
330
A0
100
AcDbEntity
  8
0
100
AcDbBlockEnd
  0
BLOCK
  5
B0
330
AF
100
AcDbEntity
  8
0
100
AcDbBlockBegin
  2
Đîńďčńü Ĺđîíüęî
 70
     0
 10
0.0
 20
0.0
 30
0.0
  3
Đîńďčńü Ĺđîíüęî
  1

  0
SPLINE
  5
B2
330
AF
100
AcDbEntity
  8
FORMAT
370
    25
100
AcDbSpline
210
0.0
220
0.0
230
1.0
 70
     8
 71
     3
 72
    14
 73
    10
 74
     0
 42
0.00000001
 43
0.00000001
 40
0.0
 40
0.0
 40
0.0
 40
0.0
 40
0.0260162359057971
 40
0.0449326857161168
 40
0.0970542848996874
 40
0.2710999658969852
 40
0.4362083108036309
 40
0.5256565165809004
 40
0.5763871038383315
 40
0.5763871038383315
 40
0.5763871038383315
 40
0.5763871038383315
 10
2.292808728998105
 20
2.202891177548516
 30
0.0
 10
2.326126075271606
 20
2.23726601758157
 30
0.0
 10
2.38366852124354
 20
2.296634862841894
 30
0.0
 10
2.317626800644943
 20
2.510205273844643
 30
0.0
 10
1.922542383417422
 20
1.933517578629425
 30
0.0
 10
1.512739877848418
 20
1.655737939479408
 30
0.0
 10
0.9657476816555544
 20
1.096548437158347
 30
0.0
 10
0.6140689219846229
 20
0.6364092388482303
 30
0.0
 10
0.351081874163453
 20
0.6534069882257187
 30
0.0
 10
0.2640010014981348
 20
0.6893676674095406
 30
0.0
  0
SPLINE
  5
B3
330
AF
100
AcDbEntity
  8
FORMAT
370
    18
100
AcDbSpline
210
0.0
220
0.0
230
1.0
 70
     8
 71
     3
 72
    17
 73
    13
 74
     0
 42
0.00000001
 43
0.00000001
 40
0.0
 40
0.0
 40
0.0
 40
0.0
 40
0.0416375144143676
 40
0.1061937400311237
 40
0.2761127896107091
 40
0.43018457706858
 40
0.6238102116521062
 40
0.6804929735838261
 40
0.7092058654244183
 40
0.7850100750714392
 40
0.9515695984005804
 40
1.0
 40
1.0
 40
1.0
 40
1.0
 10
2.7428798843291
 20
2.108124133646853
 30
0.0
 10
2.786107358175527
 20
2.10612167378247
 30
0.0
 10
2.896356185090737
 20
2.101014531695526
 30
0.0
 10
2.654497184478688
 20
1.856381376614688
 30
0.0
 10
2.44387802423654
 20
1.746978591795734
 30
0.0
 10
2.063176195482769
 20
1.495049764008188
 30
0.0
 10
1.829713355547241
 20
1.375638526640431
 30
0.0
 10
1.683338234665738
 20
1.064451797582119
 30
0.0
 10
1.845757863290748
 20
1.0831637050214
 30
0.0
 10
2.023497619351
 20
1.179544965608875
 30
0.0
 10
2.185690572025528
 20
1.386631888459333
 30
0.0
 10
2.214716557012608
 20
1.556933234425337
 30
0.0
 10
2.221255189509969
 20
1.595296718578353
 30
0.0
  0
SPLINE
  5
B4
330
AF
100
AcDbEntity
  8
FORMAT
370
    18
100
AcDbSpline
210
0.0
220
0.0
230
1.0
 70
     8
 71
     3
 72
    15
 73
    11
 74
     0
 42
0.00000001
 43
0.00000001
 40
0.0
 40
0.0
 40
0.0
 40
0.0
 40
0.0507698878619183
 40
0.1752779662997387
 40
0.3455516246491494
 40
0.4652540312616154
 40
0.5686337408453913
 40
0.6143710012237682
 40
0.6491855971533346
 40
0.6649138341144692
 40
0.6649138341144692
 40
0.6649138341144692
 40
0.6649138341144692
 10
2.209252328930211
 20
1.630687659897143
 30
0.0
 10
2.268735568925817
 20
1.608497424614365
 30
0.0
 10
2.474095513066488
 20
1.531887853944133
 30
0.0
 10
2.902424844100166
 20
1.46929429163982
 30
0.0
 10
3.428095695385047
 20
1.438575602169048
 30
0.0
 10
3.897901452362282
 20
1.599778192419868
 30
0.0
 10
4.180269261201283
 20
1.811311230881019
 30
0.0
 10
4.276053962845944
 20
2.020354303596178
 30
0.0
 10
4.272119837129537
 20
2.158358254655747
 30
0.0
 10
4.21606480273759
 20
2.195733885165183
 30
0.0
 10
4.197498944380013
 20
2.202891177548516
 30
0.0
  0
SPLINE
  5
B5
330
AF
100
AcDbEntity
  8
FORMAT
370
    25
100
AcDbSpline
210
0.0
220
0.0
230
1.0
 70
     8
 71
     3
 72
    13
 73
     9
 74
     0
 42
0.00000001
 43
0.00000001
 40
0.0
 40
0.0
 40
0.0
 40
0.0
 40
0.2551028238247375
 40
0.5752328173972059
 40
0.8433617547750923
 40
0.914375643430751
 40
0.9340041950396132
 40
1.0
 40
1.0
 40
1.0
 40
1.0
 10
3.177658282383297
 20
1.460995517896323
 30
0.0
 10
3.048071881966097
 20
1.325271481368101
 30
0.0
 10
2.755866766041656
 20
1.019226574651234
 30
0.0
 10
2.293893022043067
 20
0.5878489642478502
 30
0.0
 10
2.036450103053478
 20
0.1938419797575183
 30
0.0
 10
1.822484149636899
 20
-0.0000000000000069
 30
0.0
 10
1.701013672920235
 20
0.0106844534802294
 30
0.0
 10
1.666800356811243
 20
0.071538948459321
 30
0.0
 10
1.640430110920382
 20
0.1184431418748341
 30
0.0
  0
SPLINE
  5
B6
330
AF
100
AcDbEntity
  8
FORMAT
370
    18
100
AcDbSpline
210
0.0
220
0.0
230
1.0
 70
     8
 71
     3
 72
    29
 73
    25
 74
     0
 42
0.00000001
 43
0.00000001
 40
0.0
 40
0.0
 40
0.0
 40
0.0
 40
0.0629889429616613
 40
0.0706926888652623
 40
0.1246067482098702
 40
0.2210109858210958
 40
0.3546868697147009
 40
0.4222942568510861
 40
0.4735374031448898
 40
0.5493993784527679
 40
0.5825928960075462
 40
0.5918787680313993
 40
0.6121706419732611
 40
0.6368224073498918
 40
0.6487259334370329
 40
0.6727608094833228
 40
0.7161845272688797
 40
0.7573666518662671
 40
0.7653175822094263
 40
0.7939512532693461
 40
0.7991828820075331
 40
0.8508211456939355
 40
0.9211314855835071
 40
1.0
 40
1.0
 40
1.0
 40
1.0
 10
1.676547768543993
 20
0.0061398223536249
 30
0.0
 10
1.586706503975035
 20
0.0739550632055802
 30
0.0
 10
1.485877370085598
 20
0.1500643213778879
 30
0.0
 10
1.47690302878481
 20
0.3533063108993872
 30
0.0
 10
1.604444504381672
 20
0.5960811392727514
 30
0.0
 10
1.989591041372127
 20
0.8483537714066708
 30
0.0
 10
2.411846466067902
 20
1.090771651075281
 30
0.0
 10
2.814459435051861
 20
1.158204776453897
 30
0.0
 10
3.108600258302327
 20
1.28349474491786
 30
0.0
 10
3.358590602693099
 20
1.281190299871386
 30
0.0
 10
3.570237839056647
 20
1.292747801961994
 30
0.0
 10
3.636882643218681
 20
1.199626452875441
 30
0.0
 10
3.55879992923902
 20
1.12108821476662
 30
0.0
 10
3.421436429005525
 20
1.11709599171235
 30
0.0
 10
3.488543704851105
 20
1.009175362002499
 30
0.0
 10
3.629150928486174
 20
1.01033661754079
 30
0.0
 10
3.783195149573398
 20
1.093467684060073
 30
0.0
 10
3.935084127916488
 20
1.103853352170267
 30
0.0
 10
4.049583289929617
 20
1.164265844176969
 30
0.0
 10
4.118462656833452
 20
1.11400615036452
 30
0.0
 10
4.21814577982417
 20
1.017872996979849
 30
0.0
 10
4.451132960779175
 20
1.159590338919082
 30
0.0
 10
4.746976844965903
 20
1.198398173585469
 30
0.0
 10
4.989097872577217
 20
1.228600210561627
 30
0.0
 10
5.117103452493526
 20
1.244567552580324
 30
0.0
  0
SPLINE
  5
B7
330
AF
100
AcDbEntity
  8
FORMAT
370
    18
100
AcDbSpline
210
0.0
220
0.0
230
1.0
 70
     8
 71
     3
 72
    10
 73
     6
 74
     0
 42
0.00000001
 43
0.00000001
 40
0.0
 40
0.0
 40
0.0
 40
0.0
 40
0.3424490031584396
 40
0.7218735792192786
 40
1.0
 40
1.0
 40
1.0
 40
1.0
 10
1.640430110920382
 20
1.881728198036135
 30
0.0
 10
1.765296760098886
 20
1.912160140927495
 30
0.0
 10
2.028512404286045
 20
1.976309883911009
 30
0.0
 10
2.395351341768603
 20
2.056959732149672
 30
0.0
 10
2.639578396186837
 20
2.092915717165071
 30
0.0
 10
2.7428798843291
 20
2.108124133646853
 30
0.0
  0
SPLINE
  5
B8
330
AF
100
AcDbEntity
  8
FORMAT
370
    18
100
AcDbSpline
210
0.0
220
0.0
230
1.0
 70
     8
 71
     3
 72
    13
 73
     9
 74
     0
 42
0.00000001
 43
0.00000001
 40
0.5763871038383315
 40
0.5763871038383315
 40
0.5763871038383315
 40
0.5763871038383315
 40
0.5884982924526936
 40
0.6299628201907262
 40
0.6855933217970289
 40
0.8469555023687861
 40
0.9922369869770761
 40
1.0
 40
1.0
 40
1.0
 40
1.0
 10
0.2640010014981348
 20
0.6893676674095406
 30
0.0
 10
0.243211711830324
 20
0.6979527556536247
 30
0.0
 10
0.1532877478599842
 20
0.7434458519187739
 30
0.0
 10
0.0
 20
0.9038968225056482
 30
0.0
 10
0.3030494504309977
 20
1.348896448611324
 30
0.0
 10
0.843298286942698
 20
1.628997082106669
 30
0.0
 10
1.368507969262245
 20
1.814221993804863
 30
0.0
 10
1.627303018048129
 20
1.878469323245743
 30
0.0
 10
1.640430110920382
 20
1.881728198036135
 30
0.0
  0
SPLINE
  5
B9
330
AF
100
AcDbEntity
  8
FORMAT
370
    25
100
AcDbSpline
210
0.0
220
0.0
230
1.0
 70
     8
 71
     3
 72
    10
 73
     6
 74
     0
 42
0.00000001
 43
0.00000001
 40
0.6649138341144692
 40
0.6649138341144692
 40
0.6649138341144692
 40
0.6649138341144692
 40
0.6978238689220011
 40
0.8374455861306442
 40
1.0
 40
1.0
 40
1.0
 40
1.0
 10
4.197498944380013
 20
2.202891177548516
 30
0.0
 10
4.158651421526757
 20
2.217867219812431
 30
0.0
 10
3.929232207776606
 20
2.193699987862688
 30
0.0
 10
3.650673337638049
 20
1.839495767968317
 30
0.0
 10
3.361676600439761
 20
1.604350127592982
 30
0.0
 10
3.206211987606733
 20
1.477854492054904
 30
0.0
  0
ENDBLK
  5
B1
330
AF
100
AcDbEntity
  8
0
100
AcDbBlockEnd
  0
BLOCK
  5
CA
330
C9
100
AcDbEntity
  8
0
100
AcDbBlockBegin
  2
_D
 70
     0
 10
0.0
 20
0.0
 30
0.0
  3
_D
  1

  0
SOLID
  5
CC
330
C9
100
AcDbEntity
  8
FORMAT
100
AcDbTrace
 10
7.7829347945
 20
10.898110985
 30
0.0
 11
11.7829347945
 21
10.298110985
 31
0.0
 12
11.7829347945
 22
11.498110985
 32
0.0
 13
11.7829347945
 23
11.498110985
 33
0.0
  0
SOLID
  5
CD
330
C9
100
AcDbEntity
  8
FORMAT
100
AcDbTrace
 10
62.6516690411
 20
10.898110985
 30
0.0
 11
58.6516690411
 21
11.498110985
 31
0.0
 12
58.6516690411
 22
10.298110985
 32
0.0
 13
58.6516690411
 23
10.298110985
 33
0.0
  0
LINE
  5
CE
330
C9
100
AcDbEntity
  8
FORMAT
100
AcDbLine
 10
7.7829347945
 20
24.5653961644
 30
0.0
 11
7.7829347945
 21
9.398110985
 31
0.0
  0
LINE
  5
CF
330
C9
100
AcDbEntity
  8
FORMAT
100
AcDbLine
 10
62.6516690411
 20
24.5653961644
 30
0.0
 11
62.6516690411
 21
9.398110985
 31
0.0
  0
LINE
  5
D0
330
C9
100
AcDbEntity
  8
FORMAT
100
AcDbLine
 10
7.7829347945
 20
10.898110985
 30
0.0
 11
62.6516690411
 21
10.898110985
 31
0.0
  0
MTEXT
  5
D1
330
C9
100
AcDbEntity
  8
FORMAT
100
AcDbMText
 10
38.1616721657
 20
17.3434499167
 30
0.0
 40
5.0
 41
0.0
 71
     1
 72
     1
  1

  7
SLDTEXTSTYLE0
 73
     1
 44
1.0
  0
ENDBLK
  5
CB
330
C9
100
AcDbEntity
  8
0
100
AcDbBlockEnd
  0
BLOCK
  5
D4
330
D3
100
AcDbEntity
  8
0
100
AcDbBlockBegin
  2
_D_1
 70
     0
 10
0.0
 20
0.0
 30
0.0
  3
_D_1
  1

  0
SOLID
  5
D6
330
D3
100
AcDbEntity
  8
FORMAT
100
AcDbTrace
 10
50.1493590372
 20
17.1759939845
 30
0.0
 11
54.1493590372
 21
16.5759939845
 31
0.0
 12
54.1493590372
 22
17.7759939845
 32
0.0
 13
54.1493590372
 23
17.7759939845
 33
0.0
  0
SOLID
  5
D7
330
D3
100
AcDbEntity
  8
FORMAT
100
AcDbTrace
 10
62.6516690411
 20
17.1759939845
 30
0.0
 11
58.6516690411
 21
17.7759939845
 31
0.0
 12
58.6516690411
 22
16.5759939845
 32
0.0
 13
58.6516690411
 23
16.5759939845
 33
0.0
  0
LINE
  5
D8
330
D3
100
AcDbEntity
  8
FORMAT
100
AcDbLine
 10
50.1493590372
 20
30.5411989041
 30
0.0
 11
50.1493590372
 21
15.6759939845
 31
0.0
  0
LINE
  5
D9
330
D3
100
AcDbEntity
  8
FORMAT
100
AcDbLine
 10
62.6516690411
 20
24.5653961644
 30
0.0
 11
62.6516690411
 21
15.6759939845
 31
0.0
  0
LINE
  5
DA
330
D3
100
AcDbEntity
  8
FORMAT
100
AcDbLine
 10
50.1493590372
 20
17.1759939845
 30
0.0
 11
62.6516690411
 21
17.1759939845
 31
0.0
  0
MTEXT
  5
DB
330
D3
100
AcDbEntity
  8
FORMAT
100
AcDbMText
 10
57.5141111991
 20
23.6213329162
 30
0.0
 40
5.0
 41
0.0
 71
     1
 72
     1
  1

  7
SLDTEXTSTYLE0
 73
     1
 44
1.0
  0
ENDBLK
  5
D5
330
D3
100
AcDbEntity
  8
0
100
AcDbBlockEnd
  0
ENDSEC
  0
SECTION
  2
ENTITIES
  0
LINE
  5
BA
330
1F
100
AcDbEntity
  8
FORMAT
370
    50
100
AcDbLine
 10
10.1859941633
 20
30.5411989041
 30
0.0
 11
12.7731541483
 21
24.5653961644
 31
0.0
  0
LINE
  5
BB
330
1F
100
AcDbEntity
  8
FORMAT
370
   100
100
AcDbLine
 10
7.7829347945
 20
30.5411989041
 30
0.0
 11
62.6516690411
 21
30.5411989041
 31
0.0
  0
LINE
  5
BC
330
1F
100
AcDbEntity
  8
FORMAT
370
   100
100
AcDbLine
 10
7.7829347945
 20
30.5411989041
 30
0.0
 11
7.7829347945
 21
24.5653961644
 31
0.0
  0
LINE
  5
BD
330
1F
100
AcDbEntity
  8
FORMAT
370
   100
100
AcDbLine
 10
7.7829347945
 20
24.5653961644
 30
0.0
 11
62.6516690411
 21
24.5653961644
 31
0.0
  0
LINE
  5
BE
330
1F
100
AcDbEntity
  8
FORMAT
370
   100
100
AcDbLine
 10
62.6516690411
 20
30.5411989041
 30
0.0
 11
62.6516690411
 21
24.5653961644
 31
0.0
  0
LINE
  5
BF
330
1F
100
AcDbEntity
  8
0
  6
Continuous
 62
     7
370
    50
100
AcDbLine
 10
39.4704433546
 20
30.5411989041
 30
0.0
 11
36.8832833697
 21
24.5653961644
 31
0.0
  0
LINE
  5
C0
330
1F
100
AcDbEntity
  8
FORMAT
  6
Continuous
 62
     7
370
    50
100
AcDbLine
 10
18.1126119895
 20
30.5411989041
 30
0.0
 11
15.5254520046
 21
24.5653961644
 31
0.0
  0
LINE
  5
C1
330
1F
100
AcDbEntity
  8
0
  6
Continuous
 62
     7
370
    50
100
AcDbLine
 10
31.5438255284
 20
30.5411989041
 30
0.0
 11
34.1309855134
 21
24.5653961644
 31
0.0
  0
LINE
  5
C2
330
1F
100
AcDbEntity
  8
0
  6
Continuous
 62
     7
370
    50
100
AcDbLine
 10
50.1493590372
 20
30.5411989041
 30
0.0
 11
47.5621990523
 21
24.5653961644
 31
0.0
  0
LINE
  5
C3
330
1F
100
AcDbEntity
  8
FORMAT
  6
Continuous
 62
     7
370
    50
100
AcDbLine
 10
28.7915276721
 20
30.5411989041
 30
0.0
 11
26.2043676871
 21
24.5653961644
 31
0.0
  0
LINE
  5
C4
330
1F
100
AcDbEntity
  8
FORMAT
  6
Continuous
 62
     7
370
    50
100
AcDbLine
 10
20.8649098459
 20
30.5411989041
 30
0.0
 11
23.4520698308
 21
24.5653961644
 31
0.0
  0
LINE
  5
C5
330
1F
100
AcDbEntity
  8
0
  6
Continuous
 62
     7
370
    50
100
AcDbLine
 10
42.222741211
 20
30.5411989041
 30
0.0
 11
44.8099011959
 21
24.5653961644
 31
0.0
  0
DIMENSION
  5
C6
330
1F
100
AcDbEntity
  8
FORMAT
100
AcDbDimension
  2
_D
 10
62.6516690411
 20
10.898110985
 30
0.0
 11
37.1963944268
 21
10.898110985
 31
0.0
 70
   160
  1
 
 71
     2
 42
-1.0
  3
SLDDIMSTYLE0
100
AcDbAlignedDimension
 13
7.7829347945
 23
24.5653961644
 33
0.0
 14
62.6516690411
 24
24.5653961644
 34
0.0
 50
0.0
100
AcDbRotatedDimension
  0
DIMENSION
  5
D2
330
1F
100
AcDbEntity
  8
FORMAT
100
AcDbDimension
  2
_D_1
 10
62.6516690411
 20
17.1759939845
 30
0.0
 11
56.5488334602
 21
17.1759939845
 31
0.0
 70
   160
  1
 
 71
     2
 42
-1.0
  3
SLDDIMSTYLE0
100
AcDbAlignedDimension
 13
50.1493590372
 23
30.5411989041
 33
0.0
 14
62.6516690411
 24
24.5653961644
 34
0.0
100
AcDbRotatedDimension
  0
ENDSEC
  0
SECTION
  2
OBJECTS
  0
DICTIONARY
  5
C
330
0
100
AcDbDictionary
281
     1
  3
ACAD_GROUP
350
D
  3
ACAD_LAYOUT
350
1A
  3
ACAD_MLINESTYLE
350
17
  3
ACAD_PLOTSETTINGS
350
19
  3
ACAD_PLOTSTYLENAME
350
E
  3
ACAD_SCALELIST
350
47
  3
DWGPROPS
350
DC
  0
DICTIONARY
  5
D
102
{ACAD_REACTORS
330
C
102
}
330
C
100
AcDbDictionary
281
     1
  0
DICTIONARY
  5
1A
102
{ACAD_REACTORS
330
C
102
}
330
C
100
AcDbDictionary
281
     1
  3
Layout1
350
1E
  3
Layout2
350
26
  3
Model
350
22
  0
DICTIONARY
  5
17
102
{ACAD_REACTORS
330
C
102
}
330
C
100
AcDbDictionary
281
     1
  3
Standard
350
18
  0
DICTIONARY
  5
19
102
{ACAD_REACTORS
330
C
102
}
330
C
100
AcDbDictionary
281
     1
  0
ACDBDICTIONARYWDFLT
  5
E
102
{ACAD_REACTORS
330
C
102
}
330
C
100
AcDbDictionary
281
     1
  3
Normal
350
F
100
AcDbDictionaryWithDefault
340
F
  0
DICTIONARY
  5
47
102
{ACAD_REACTORS
330
C
102
}
330
C
100
AcDbDictionary
281
     1
  3
A0
350
48
  3
A1
350
49
  3
A2
350
4A
  3
A3
350
4B
  3
A4
350
4C
  3
A5
350
4D
  3
A6
350
4E
  3
A7
350
4F
  3
A8
350
50
  3
A9
350
51
  3
B0
350
52
  3
B1
350
53
  3
B2
350
54
  3
B3
350
55
  3
B4
350
56
  3
B5
350
57
  3
B6
350
58
  3
B7
350
59
  3
B8
350
5A
  3
B9
350
5B
  3
C0
350
5C
  3
C1
350
5D
  3
C2
350
5E
  3
C3
350
5F
  3
C4
350
60
  3
C5
350
61
  3
C6
350
62
  3
C7
350
63
  3
C8
350
64
  3
C9
350
65
  3
D0
350
66
  3
D1
350
67
  3
D2
350
68
  0
XRECORD
  5
DC
102
{ACAD_REACTORS
330
C
102
}
330
C
100
AcDbXrecord
280
     1
  1
DWGPROPS COOKIE
  2

  3

  4

  6

  7

  8
Dmitry Pushin
  9

300
=
301
=
302
=
303
=
304
=
305
=
306
=
307
=
308
=
309
=
 40
0.0
 41
2460158.498791632
 42
2460158.498791805
  1

 90
        0
  0
LAYOUT
  5
1E
102
{ACAD_REACTORS
330
1A
102
}
330
1A
100
AcDbPlotSettings
  1

  2
none_device
  4

  6

 40
0.0
 41
0.0
 42
0.0
 43
0.0
 44
0.0
 45
0.0
 46
0.0
 47
0.0
 48
0.0
 49
0.0
140
0.0
141
0.0
142
1.0
143
1.0
 70
   688
 72
     1
 73
     0
 74
     5
  7

 75
    16
147
1.0
148
0.0
149
0.0
100
AcDbLayout
  1
Layout1
 70
     1
 71
     1
 10
0.0
 20
0.0
 11
420.0
 21
297.0
 12
0.0
 22
0.0
 32
0.0
 14
1.0000000000E+20
 24
1.0000000000E+20
 34
1.0000000000E+20
 15
-1.0000000000E+20
 25
-1.0000000000E+20
 35
-1.0000000000E+20
146
0.0
 13
0.0
 23
0.0
 33
0.0
 16
1.0
 26
0.0
 36
0.0
 17
0.0
 27
1.0
 37
0.0
 76
     0
330
1B
  0
LAYOUT
  5
26
102
{ACAD_REACTORS
330
1A
102
}
330
1A
100
AcDbPlotSettings
  1

  2
none_device
  4

  6

 40
0.0
 41
0.0
 42
0.0
 43
0.0
 44
0.0
 45
0.0
 46
0.0
 47
0.0
 48
0.0
 49
0.0
140
0.0
141
0.0
142
1.0
143
1.0
 70
   688
 72
     1
 73
     0
 74
     5
  7

 75
    16
147
1.0
148
0.0
149
0.0
100
AcDbLayout
  1
Layout2
 70
     1
 71
     2
 10
0.0
 20
0.0
 11
0.0
 21
0.0
 12
0.0
 22
0.0
 32
0.0
 14
0.0
 24
0.0
 34
0.0
 15
0.0
 25
0.0
 35
0.0
146
0.0
 13
0.0
 23
0.0
 33
0.0
 16
1.0
 26
0.0
 36
0.0
 17
0.0
 27
1.0
 37
0.0
 76
     0
330
23
  0
LAYOUT
  5
22
102
{ACAD_REACTORS
330
1A
102
}
330
1A
100
AcDbPlotSettings
  1

  2
none_device
  4
Letter_(8.50_x_11.00_Inches)
  6

 40
6.35
 41
6.35
 42
6.35000508
 43
6.35000508
 44
215.9
 45
279.4
 46
0.0
 47
0.0
 48
0.0
 49
0.0
140
0.0
141
0.0
142
1.0
143
1.0
 70
  1712
 72
     1
 73
     0
 74
     0
  7

 75
     0
147
1.0
148
0.0
149
0.0
100
AcDbLayout
  1
Model
 70
     1
 71
     0
 10
0.0
 20
0.0
 11
70.0
 21
50.0
 12
0.0
 22
0.0
 32
0.0
 14
0.0
 24
0.0
 34
0.0
 15
70.0
 25
50.0
 35
0.0
146
0.0
 13
0.0
 23
0.0
 33
0.0
 16
1.0
 26
0.0
 36
0.0
 17
0.0
 27
1.0
 37
0.0
 76
     0
330
1F
331
29
  0
MLINESTYLE
  5
18
102
{ACAD_REACTORS
330
17
102
}
330
17
100
AcDbMlineStyle
  2
Standard
 70
     0
  3

 62
   256
 51
90.0
 52
90.0
 71
     2
 49
0.5
 62
   256
  6
BYLAYER
 49
-0.5
 62
   256
  6
BYLAYER
  0
ACDBPLACEHOLDER
  5
F
102
{ACAD_REACTORS
330
E
102
}
330
E
  0
SCALE
  5
48
102
{ACAD_REACTORS
330
47
102
}
330
47
100
AcDbScale
 70
     0
300
1:1
140
1.0
141
1.0
290
     1
  0
SCALE
  5
49
102
{ACAD_REACTORS
330
47
102
}
330
47
100
AcDbScale
 70
     0
300
1:2
140
1.0
141
2.0
290
     0
  0
SCALE
  5
4A
102
{ACAD_REACTORS
330
47
102
}
330
47
100
AcDbScale
 70
     0
300
1:4
140
1.0
141
4.0
290
     0
  0
SCALE
  5
4B
102
{ACAD_REACTORS
330
47
102
}
330
47
100
AcDbScale
 70
     0
300
1:5
140
1.0
141
5.0
290
     0
  0
SCALE
  5
4C
102
{ACAD_REACTORS
330
47
102
}
330
47
100
AcDbScale
 70
     0
300
1:8
140
1.0
141
8.0
290
     0
  0
SCALE
  5
4D
102
{ACAD_REACTORS
330
47
102
}
330
47
100
AcDbScale
 70
     0
300
1:10
140
1.0
141
10.0
290
     0
  0
SCALE
  5
4E
102
{ACAD_REACTORS
330
47
102
}
330
47
100
AcDbScale
 70
     0
300
1:16
140
1.0
141
16.0
290
     0
  0
SCALE
  5
4F
102
{ACAD_REACTORS
330
47
102
}
330
47
100
AcDbScale
 70
     0
300
1:20
140
1.0
141
20.0
290
     0
  0
SCALE
  5
50
102
{ACAD_REACTORS
330
47
102
}
330
47
100
AcDbScale
 70
     0
300
1:30
140
1.0
141
30.0
290
     0
  0
SCALE
  5
51
102
{ACAD_REACTORS
330
47
102
}
330
47
100
AcDbScale
 70
     0
300
1:40
140
1.0
141
40.0
290
     0
  0
SCALE
  5
52
102
{ACAD_REACTORS
330
47
102
}
330
47
100
AcDbScale
 70
     0
300
1:50
140
1.0
141
50.0
290
     0
  0
SCALE
  5
53
102
{ACAD_REACTORS
330
47
102
}
330
47
100
AcDbScale
 70
     0
300
1:100
140
1.0
141
100.0
290
     0
  0
SCALE
  5
54
102
{ACAD_REACTORS
330
47
102
}
330
47
100
AcDbScale
 70
     0
300
2:1
140
2.0
141
1.0
290
     0
  0
SCALE
  5
55
102
{ACAD_REACTORS
330
47
102
}
330
47
100
AcDbScale
 70
     0
300
4:1
140
4.0
141
1.0
290
     0
  0
SCALE
  5
56
102
{ACAD_REACTORS
330
47
102
}
330
47
100
AcDbScale
 70
     0
300
8:1
140
8.0
141
1.0
290
     0
  0
SCALE
  5
57
102
{ACAD_REACTORS
330
47
102
}
330
47
100
AcDbScale
 70
     0
300
10:1
140
10.0
141
1.0
290
     0
  0
SCALE
  5
58
102
{ACAD_REACTORS
330
47
102
}
330
47
100
AcDbScale
 70
     0
300
100:1
140
100.0
141
1.0
290
     0
  0
SCALE
  5
59
102
{ACAD_REACTORS
330
47
102
}
330
47
100
AcDbScale
 70
     0
300
1/128" = 1'-0"
140
0.0078125
141
12.0
290
     0
  0
SCALE
  5
5A
102
{ACAD_REACTORS
330
47
102
}
330
47
100
AcDbScale
 70
     0
300
1/64" = 1'-0"
140
0.015625
141
12.0
290
     0
  0
SCALE
  5
5B
102
{ACAD_REACTORS
330
47
102
}
330
47
100
AcDbScale
 70
     0
300
1/32" = 1'-0"
140
0.03125
141
12.0
290
     0
  0
SCALE
  5
5C
102
{ACAD_REACTORS
330
47
102
}
330
47
100
AcDbScale
 70
     0
300
1/16" = 1'-0"
140
0.0625
141
12.0
290
     0
  0
SCALE
  5
5D
102
{ACAD_REACTORS
330
47
102
}
330
47
100
AcDbScale
 70
     0
300
3/32" = 1'-0"
140
0.09375
141
12.0
290
     0
  0
SCALE
  5
5E
102
{ACAD_REACTORS
330
47
102
}
330
47
100
AcDbScale
 70
     0
300
1/8" = 1'-0"
140
0.125
141
12.0
290
     0
  0
SCALE
  5
5F
102
{ACAD_REACTORS
330
47
102
}
330
47
100
AcDbScale
 70
     0
300
3/16" = 1'-0"
140
0.1875
141
12.0
290
     0
  0
SCALE
  5
60
102
{ACAD_REACTORS
330
47
102
}
330
47
100
AcDbScale
 70
     0
300
1/4" = 1'-0"
140
0.25
141
12.0
290
     0
  0
SCALE
  5
61
102
{ACAD_REACTORS
330
47
102
}
330
47
100
AcDbScale
 70
     0
300
3/8" = 1'-0"
140
0.375
141
12.0
290
     0
  0
SCALE
  5
62
102
{ACAD_REACTORS
330
47
102
}
330
47
100
AcDbScale
 70
     0
300
1/2" = 1'-0"
140
0.5
141
12.0
290
     0
  0
SCALE
  5
63
102
{ACAD_REACTORS
330
47
102
}
330
47
100
AcDbScale
 70
     0
300
3/4" = 1'-0"
140
0.75
141
12.0
290
     0
  0
SCALE
  5
64
102
{ACAD_REACTORS
330
47
102
}
330
47
100
AcDbScale
 70
     0
300
1" = 1'-0"
140
1.0
141
12.0
290
     0
  0
SCALE
  5
65
102
{ACAD_REACTORS
330
47
102
}
330
47
100
AcDbScale
 70
     0
300
1-1/2" = 1'-0"
140
1.5
141
12.0
290
     0
  0
SCALE
  5
66
102
{ACAD_REACTORS
330
47
102
}
330
47
100
AcDbScale
 70
     0
300
3" = 1'-0"
140
3.0
141
12.0
290
     0
  0
SCALE
  5
67
102
{ACAD_REACTORS
330
47
102
}
330
47
100
AcDbScale
 70
     0
300
6" = 1'-0"
140
6.0
141
12.0
290
     0
  0
SCALE
  5
68
102
{ACAD_REACTORS
330
47
102
}
330
47
100
AcDbScale
 70
     0
300
1'-0" = 1'-0"
140
12.0
141
12.0
290
     0
  0
ENDSEC
  0
EOF
